<mxfile host="app.diagrams.net" agent="Mozilla/5.0 (Windows NT 10.0; Win64; x64) AppleWebKit/537.36 (KHTML, like Gecko) Chrome/137.0.0.0 Safari/537.36 Edg/137.0.0.0" version="27.1.1">
  <diagram name="PÃ¡gina-1" id="eDNRYajEhs36DQaRHOt-">
    <mxGraphModel grid="1" page="1" gridSize="10" guides="1" tooltips="1" connect="1" arrows="1" fold="1" pageScale="1" pageWidth="827" pageHeight="1169" math="0" shadow="0">
      <root>
        <mxCell id="0" />
        <mxCell id="1" parent="0" />
        <mxCell id="R0EctN2d7xHOa9svaAjA-1" value="" style="shape=image;verticalLabelPosition=bottom;labelBackgroundColor=default;verticalAlign=top;aspect=fixed;imageAspect=0;image=data:image/png,iVBORw0KGgoAAAANSUhEUgAABAoAAAeACAMAAABwuUU9AAAAIGNIUk0AAHomAACAhAAA+gAAAIDoAAB1MAAA6mAAADqYAAAXcJy6UTwAAAGPUExURf////v7+9/f37W1tZOTk1lZWS4uLgAAAOrq6qWlpfT09IGBgcTExBgYGG5ubkRERNLS0l5eXnp6ejMzM+Xl5fz8/GZmZvn5+ZycnJKSksPDw7y8vGlpaQEBAQICAvHx8dDQ0IaGhtjY2GhoaKenp+jo6HNzc7+/vwsLC97e3tbW1sHBwa6ursjIyMLBwbu6urq6uvzh4fi6uvWbm/BlZew9PegTE+UUFOIVFf3r6/arq/709POKivnIyOopKfF4eO5RUfrV1f77+2BcXLe3t4uLi9vb20ZGRpqamldXV6ioqO7u7vb29qqqqoJKSvv4+NYcHGdnZ8/Pz4mJieTk5HJycqCgoPX19X5+fq2trZaWlnR0dKSkpMnIyJeXl+vr68rKytfX15+fn4WFhcDAwHt7e9HR0fj4+IqKiqGhoY6Ojnl5ebOzs7i4uJmZmZubm2pqapWVlWxsbHFxcXV1dbu7u5+dncYkJOfk5JCQkGJiYuLi4o2Nja+vr4iIiMbGxoKCgnd3d7m5ub6+vtPT0wyFLRsAAAABYktHRACIBR1IAAAACXBIWXMAABibAAAYmwFJdYOUAAAAB3RJTUUH6QYEADg1vJH6xQAAgABJREFUeNrt/Yuf28h652kCIIEgbiQzmXKVVSqf7jrtGbc9nmmpMumRlJlSaVRSlaSZaVfb7R4ft+0+ve5ee3Znvbuzt5ndnb394RsRAHjJCwmSQQYQ8X0+5yiTlyQBFuLHeAMBIAgAAAAAAAAAAAAAAAAAAAAAAAAAAAAAAAAAAAAAAAAAAAAAAAAAAAAAAAAAAAAAAAAAAAAAAAAAAADgoTC0vQQALIoGwzgRtSQeDiLbSwTgxEZpLB4QpyPbSwbgVLJBsuwJ1BY9hGSQ2V4+ACcQ6f5Akhf3mnxW5DoOYioFwHU6CMr80cYe5SVhALguG6sOQbH5SYXqGowpEwBnpeX2IFBUGJSp7aUFcBTZpH0DV6ExoWMAOGha7tLtV6VEObW9zABMS2XTblEbLBUyOigSAMfkssO/4/ShkSwoctvLDcAklQQ7H2oQkgWAW/I92/S+fwegi/Zv0WQB4I70gPacM3YIOGIqxGT/v54IMbW9BgAOl5V7jBguhRNRMtcI6D/ZlA86CcGoPKRTAaAbUiF2mll0X8FwAdB7sjwYH/oaY0oEoO9MNGMTcQLApshI514WGZzLBOizWCQmXiYR8Z5/mUWcOBWwLjp4zLBS7N0tSPcOEQDGGOoUHNAtIAoA+zJDnQLdLdhv9JEoAOwbiNLUS5ViUP+mq//pYDmBMRpM65iIojCY6quqhNO0uk9HwbQJJPWEKNW1xqgwlFIAtknMHVaYL0oN2bgLdbWEvBoPVOdJEyLWDV8IfSsOisV98tmDUp1TMVw+Ia3OsyjKnCFF4ARGBvcBRkLU7TYVSSnUpZTG1S0hJqqtq6Yuf4ixbORDGRTqh35cnWVZnUE5qp9QxoWaqSASdUUG9lECx5eaGjRUkmaCQlqdLVX+kK0/LNXlU8K01P0PoeczDWQzD9WPpHr2pNCnU4/1E6rBC9nHiHTXwOACAnhEbPK0I3kz/pdWRy2HulVXgdD8rM6LEFb9gVB/5zeHQBS6VyGqF2mGM6eLrgaA4zG2/0CRbbn6pelrxKqbMK6PWqxqkbrDv/ojrXc9ZDpA6nMfyGpjqi/aWnIuBODoon13AD4oawr7ZvegjoJYdwCCeg/Dg1FQH+GsC4z6kcHyMu4c8wgc26BdJR4ORat9/0m9O/GxKCgeiYKkecJaFMQ19igCxzZs1cLV1Q5aPbFp9WtR0BQI0bYCYa2CMNtfAbDR4ht7k6nau9cqCppkWYuCQd2om2HDh6JAdyYG9bChfiSrBhaDMGXUEDi6ZDFBcANZy2ftJgc39cZaFISlujRzlldt++EoKNNQ7W2Ml48EuSiLUP+gdwAcW6sJPGna9jiBqN6FsBYFan+gSEQ1k+CRsQLZ71AzirKVRQrVn8TC6C4OAA9rFQWqBR8SBUGU6FnI4co7rkdBPJ0I1XVYW6RwrP5q0qLbAuBAraf17hYF92TRtvfJHhoSUIcmATi60HwU0HaB/iEKACinKhAAdBpRACAgCgBoraYYKbtNMQLQL60mHivtoqDdIQ0AuqZ1220XBa2TBUCntO7Rt4uC1vUGgE5pfShwlLY4FCDjnKRATx3nhGYAeuY4pzkF0DPHOfk5gJ45ziVRAPTNUS6UBqBvjnL51Ac9PiuZ+cqAdae7qDpRAHRZbKpbn2zZf0AUAF0WGeoWFHcHINduZasNfrR6fpMRUQB0gqFuwXqnYBQLkQzrgiFMEzEZ1A1+FJdCTOpjFcIikU+bEgWAfZGRqxKma50C2UUQZXO5w0GpL3040Q1+VFZnQtf7LYrVRwDYNTZw1ZGsFOPlrbAU8TSIxnqiQabPa16o9q+fNxnJboIeYsz0xVKiWBAFQAesN+P9rMdJWu+hLNWXf764oXsFaVjdmKpDpKuzoiZEAdAF6cEjh8V6kdGct0CfDiGug2a8bPDZQFTXWK6GF3KiAOiEiSgPmjI8KuurJdeqIQClXB78OKgafJTG+pF0ecwCw4ZAN6gK/oALGISTO6MNYkndmOo7qwavBhRFPNQp0IQEOxOBjpDNdLL/X0+a1r68Y+XEZkl9Q5cBYSly1QGJqwKhKh1SogDoiFTsf1hSfm9v5LieqpCpvkIzb0EPDtZnUMv0nzQDiuxMBDoj3zsLHvjLeqpCqDsEakgx1PsPhep+lKoSGeonRPoRXTPYXn0AtX2z4MG/GwtRDvOkGkKQX/plXopqZ2IiJsO8mX0Uq6clTDECukS26d3HDsPJgwkSDvWYYVJNQNTTi5LqzIfVBMM8rmqK6pERUQB0iMqCHfcpjiaP9SVGRTpYvliRjoIwqoJhqh4YRfUuhyhVxyNxomSgQ2Q5X+4010h9xXM6Q8A5U9m0x62PR8jUiMDU9jIDMC9TQ3wtv+dTdbDxwccxAegk1cCTFlWCGvBrGxoA+kd1+7eGgR75b19KAOghfQKBMn90VD/S8wJiRv0B1+kwEEle3Pvez4o8EQQB4ItskFSThOLhIKoNhnF954DSAPDGqD6xwB1xytXQAN8sewJND8H2EgGw6OyMrgAAGQVnthcBgH1EAYCAKACgEQUAAqIAgEYUAAiIAgAaUQAgIAoAaEQBgIAoAKARBQACogCARhQACIgCABpRACAgCgBoRAGAgCgAoBEFAAKiAIBGFAAIiAIAGlEAICAKAGhEAYCAKACgEQUAAqIAgEYUAAiIAgAAAAAAsO78/Nz2IgCwbzab2V4EAPYRBQACogCARhQACIgCABpRACAgCgBoRAGAgCgAoBEFAAKiAIBGFACQLi4ubC8CAAAAAAAAgG7hjMcAAqIAgEYUAAiIAgAaUQAgIAoAaEQBgIAoAKARBQACogCARhQACIgCABpRACAgCgBoRAGAgCgAoBEFAAKiAIBGFAAIiAIAGlEAICAKAGhEAYCAKACgEQUAAqIAgEYUAAiIAsB7T0aKjAL144ntpQFgyZPfOVv6yvbSALDl62US/K7tZQFgzdNlFHxje1kAWPPkGfUBgJUKYWh7SQBY9JT6AMBKhUB9AHjta+oDAIsKgfoA8FtdIVAfAJ77mvoAQF0hUB8AvtMVAvUB4L2vqQ8A6AqB+gCArBCoDwAEX1MfAJAVAvUB4L0oF9/+nhgXtpcDgEXTiaiVU9vLAsCWocyAZBBFRSx/YcQA8FMmuwSTafX7SP2e2V4iAKc3LYXIw8XNIUUC4CPV9NcGC1U0UCQAftHFweiB+ygSAI/cKQ4aFAmAV+4VBw2KBMAfDxUHa49RJAAeeKQ4aFAkAF54tDhoUCQA7ttUHKw9hyIBcNiW4qBBkQA4bWtx0KBIANzVpjhYey5FAuCglsVBgyIBcFLr4qBBkQC4Z5fiYO1vKBIAh+xYHDQoEgCn7FwcNCgSAHfsUxys/S1FAuCAPYuDBkUC4IS9i4MGRQLQf4cUB2uvQZEA9NiBxUGDIgHoNWNNmCIB6C+THXuKBKCvDH+TUyQAvWS86VIk7C5L02VXqpjsOWqT7/uHwFE69BQJO4uEiJrfw3LPJB0JMbC9IuirI32DUyTsaDUKgtG+/0UKOmPY09GaLEXCbtaiADixY3bkKRJ2shYFRT1uMBoMi+YjDKN0OFo8HE6Hg8WwgHykqG7UAw7ZNB1OGTVAa0f+5qZI2MFaFMT693AslGokUF3LXv4+qB6e6ltj/eRM/17dqF6k0HeIgyaRwydHb6oUCe09EAWx/O8zHJcilr9n8qOMh/KfVD+QyBuJENNAjzGKJI2rR/SLyCSYDNXDB04jhydO0YGnSGjtfhRMZesO9V4B2chzkajPcSjKTGfESD8rl/+m1TFkA/33+p+8VPcHJXsT0MaJvrEpElq6HwWxmOgb02mg2rhu15nuCdSPFKLUj+iGHwyioCkQmhcZ214p9MDJmihFQjv3oyBZ+dxk12CYKqXqIsS6GAhC9Sfh2phA8yJZkY6FriyATU7ZcadIaOV+FFRDAYtHG+NFFOiGLx9Z2VVQvUieVE8lCrDFib+pKRJaeCgKBquPprViPQpGa6ODzbBhMhyMUqIAW5y8aVIkbPfQWMGy1s/WyoDVKFhLDH1PWFYP50QBNrLRYadI2Op+FOSi1F3/SVKo3QE6F8J8kN2JgqQaQwzLSbRWMoQUCNjI0jc0RcIWsgEPIm1UR0FWijINM5kII93pz6OgvrEWBfIPZVaMYj0VSSzGG6cMG2Ija02SImGz5cBg3EwxqicNVqXBeOXGWhTI3kNl1NwzkDfkpz0hCvAomx11ioSNHogC9VUvyrweJBhM1I2p+nU9CoJiosYJo8U9oXrqpGDYEI+y/M1MkbC7tex8fCLx3UcyjkXCBtabIkUCYF8XOuhdWAbAbx35RrbeMwH8ZqQJRnl+8HGvHYkkwEtGOuYDPbM9OfTIV4oEwBYj38SZOkOGOiHGwYPTFAnAo87Pz+t/zDPT9IbV1Nek3qd9iBMVCcvP9EgfLGDebDar/zEtNNQhL6tZb4VIDn8tXSQcfdf38jM9ygcLHMPRttgwMfMNHEbV0TJGokD3VI4+F44oQA8dbYvNDZ/5dlyfP+tQA2Gg0tiMKMCJPRkd7EmzxRp4rTW/MtziCmNX7hgL8U8Mr+wjn+lRPtjFu9jY4tBFchP7p2cH+67ZYkeHv9a6ybcm13ZUGjt3ZiiE6XV95DM9zgdb+/U/+33iANKTf2p2sz1CFBgcnstKg6N9bkSB8p98ZWPTQ6c8+SdqS/juYF8t+rGHv9aa//QPvjV3CuxwUp9Yx4RUiH/+h4bX9uHP9Cgf7MI/lVvAH9Ev8J3qE/xn35n4Tjja6FZq7jrbKgmMXXCnEIbGHx93mmHDJyoMzPULit0HeaMoVFdV41pINsle539mZiM43hYbm5rOYzQJhkIkx55YcKo9CE/+SFYjhl5rusewrP6Tsb4+CmwZGdsGuj/FKMjNJYFjU4yMbAZCqH/DfPe+ko6CUbm5OxEffd+t12R9YKpneMwt1szE41ydaFM7uA2faOJxH6Ngv79s0ZEgCo7KXKfguFusiaa3cn2eQycWnOpwpD5FQaROfh5l9aTOkfwtGK105bIHAlg/SdH/RbJo1Dy1vlu/VFb9XRZNVJDX9zOqYJzBKLi4uKj/OQYDBwYbi4LTHaS8/EyP9sFWDGwH1Sebqo850F/h6gLqcf1Jjyb69KdrYZCquyZp9beRuh0vnjop1FPV9RDUceV5VD9bv7T6+EUy4ChxswxGwbF15sBgF09dYmA7iGPZ1uNiEQWJOnl5fZyGSuFEfmzlSvtV50KflNXeoZUoiMrqqWpINlIvkcgXSoKgiEuRxLGeGaLvK8kCo3oUBV1pgp2JJJMMjhU0UaB6BFlezRpP1DVPwnR1omdUdRmG+uoHK1EwEeoaSUWp/lOra6VM9T6JUbAYKxjLLoO8L+HE6Gb1KQo6cfagLizDERwjCvSnpPcQFvUFUouVC6XG1dXRgvEwW42CutmrnT36pXT2T/SPKgpG9cFpg/0HKfGQXkVBB76RO9IzMe4IUVAdCa5bbFrPGMhWrrK+9jkuoyAVid7HM1DnmorqXKj6C1UUTEWpn7DP9AVs0LMosN0UrUfRsRwhCqr/TJlqseOmMJgs9geGay15GQX56thuVH/zr0ZBunyC0UPXvde3KOBCacdx3CiImxnayyjIVmqF1SiQBUVcGz0SBYsnEAUm9S4KuHzqUZymQAhXvsnXzkKxViAs734oCgoDZ6nFA3oYBVxU/QgMRUE9GSBoNWxY7QHIh6M7w4a6cAin4cNR0AwbhoWb/TNr+hgFVjrqDhcHipHtoNQ7BVZ3Jobpys7EoFjdASjbfJ7pXsP6zkT5HBUXk3oPgn5u9Uh9BEmsdzCqW+7+57Chl1Fg4Rva5eJAMbId5HryYBMFZTWDSB+9ORX1tKCV8YFYzT8qq6hYiQL91HGpE2I9CmR/oIz1aajkExJGDQ3raRScumk6XRwoRraDbKzmBa5NPJ7U7TXS16WarB06MNSXqro/8bh6qvrD9SgI8rI6VmFi5BpXWNfXKDhph93x4kAxtB2o44Sqw5F0YT9d2V84KqbZvWcP6mzQhyotDkcaTYuwfkL1AotH6kOasikDBcb1NgpO+E3tenGgGN8OOKK4b3ocBbqJ5sffseR8caAQBd7rcxRUHfcjH7nuQXGgEAXe63UUVN/YRx1I9qE4UIxvB0PmAvZMz6Pg2EWCF8WB0vftAAfr/SZwzCLBk+JA6f12gEM5sAkcrUjwpThQHNgOcBgXNoEjFQneFAeKC9sBDuLEJnCMIsGj4kBxYjvAIRzZBIwXCT4VB4oj2wH258omYLhI8Ko4UFzZDrA3ZzYBk0WCZ8WB4sx2gH05tAkYKxJ8Kw4Uh7YD7MelTcBQkeBdcaC4tB1gL05tAiaKBA+LA8XmdsAM5U5wKgoMFAk+FgeKxe1gLHa/CDvMcywKDi0SvCwOFIvbQc6ZyTrBtSg4qEjwtDhQbG4HXCC9E5yLggOKBF+LA+Wk20G29gPd4GAU7FskeFscKCa2g1TE2TDRpzTXilj+d5jqX2MRyUf02ZDDvFTXSh6NhRgX1WPqJCfhVN4fD6r/bKO4FGVMb+GkXIyCvYoEj4sDxUwUTPS5iGUiqJv11Q8TdSMW6lTnOgr03WVU1pdFXL0UorxPn9m4qK+JyDmNT8nJKNijSPC5OFDMRIG6DMpI9QUC3Z7zKEyT+sJGIi4CfWlk+d9lJBMj0T/yoI6CsBRpmMW6+WfySWmWlvX1lXAajkbBrkWC18WBYigKdJpWFzxKqn2Ehf7qb66gGFVPKapv/EJfSlFHwaC6qmKhTmqeV5dRCZPm+ss4BVejYKciwfPiQDEUBfqyBZm6cNHiSsml2lfYnPQ0qu+tvvDDOiZS/Tdpk9x1iMh8Lm1/LD5xNgp2KBJ8Lw4UQ1FQ/VIPEFZXPi9VS4+rkFhc7mjxo4mC6rJpw6y6t/rPNm1eD6fgcBS0LRK8Lw4UM1FQXw9dNe5m6E+PFraIAnVtVaH/e2V150JdI5GdCKfjchS0KhIoDjRDvYLqg6z3Fax8qi2iQF1KrdQdgmbXwYBewSk5HQUtigSKg4qhKNCfdaRaeNg0aB0I26MgVN23UalGCif1cOFYX6MdJ+J4FGwrEigOaoaiQPWvsliUod5poFIgEsm0RRQMqxkFsRoxrCOlKLnA0im5HgUbiwSKgwUzUaByN6/nBsmSX4wLNYUwaBEFIyHiwSCuqopEXWtd/WP7U/GK81GwoUigOFgyNPF4qCcbTvXNSI8Dionqk20vEFL95FL3A7Jq0iIpfVIeRMFjRQLFwQpDURBkgzxqbodFOh5UHbIirZp1llZ9/sWPTD0WVc/Oh9PmT6dpnE7bvSsM8SEKHiwSKA7WmIoC9JYXUfBAkUBxsI4o8J4nUXC3SKA4uIMo8J4vUbBWJEwpDu4iCrznTRTonoCIiygaqJFtioN1Hm0HeJhPm8C0bGbFT6a2l6VrfNoO8CC/NoFirA95iQ5/Jdf4tR3gAWwCUNgOvMcmAIXtwHtsAlDYDrzHJgCF7cB7bAJQ2A68xyYAhe3Ae2wCUNgOvMcmAIXtwHtsAlDYDrzHJgCF7cB7bAJQ2A68xyYAhe3Ae2wCUExsB0Vc00eAh2lc1lc+G8VxUIyTvD5dRJaOk+akh+gMogCKqYuqa+oMJqPqfMf6NHKREMXiAXXdE43jQ7uFKIBiYjvIImWgL4MQJuok6OqaCJmOAhEXRXWVg3AiJoNRMeEqBx1DFEAxth2E+lpnzQXWs0TdklGgL31WqpDIhrE6x+T6NRVhH1EAxdh2EIukugZKdZ7Dobr4SVRfTDFfOfnhiAqhY4gCKKa2g2F9IfTmeof6y1/+o0823ZwHNUrjCYMFXUMUQDG0HUzr7/9g0dDVL83l0aoomFanlyQKOoYogGJmOxiV6krIyt1egb6hoyAsxWQQrYQFuoEogGJkO1A7B+rLztwdK9A3dBSk1a6DjCjoGKIAipHtIBdlM3Ho7h6E+s54MXY4JAo6hiiAYmI7GAgxSTV54868Av0EHQWyO5CO9FnoiYJOIQqgmNgO4ma2oWr4zWzDaXAnCuqnxURBxxAFUExsB8PmGARdAYSD8SROF8cgKEV1dMI0T8aDMI45CqFTiAIobAfeYxOAwnbgPTYBKGwH3mMTgMJ24D02AShsB95jE4DCduA9NgEobAfeYxOAwnbgPTYBKGwH3mMTgMJ24D02AShsB95jE4DCduA9NgEobAfeYxOAwnbgPTYBKGwH3mMTgMJ24D02AShsB95jE4DCduA9NgEobAfeYxOAYmI7iNIiiIbDURCE02HaXBw1nKaDxYVSwyItQtvrigcRBVBMbAepiIfqZMaDUJ/tWF88OYhKfX7jqfo9HOuTHee2VxYPIQqgmImCUsTpRJQT/UNfND1STT+vL3ogn5CnZXNZRXQLUQDFTBSIQaAvhlLoH+pM57EYy0QIY3V1tLBUD2RxSbegi4gCKIaiQHUEiuoS6gPV+qP6widT9VBIf6DLiAIohsYK1I+o+SF0BFSXTtORIAuFcZEd9iY4FqIAypGiIF1cO01dZH2kr5EWc4G0TiIKoBwtCsq0pgMgGk6qVEDnEAVQjhQFUTV8sKoQahABnUMUQDlSFGRC70cIwrwIgyzNq6cJZhl1EFEA5UhREAxFOcyCbCKSMBjp0iCLmWPUSUQBlGNFQajGBtSEw1FQDSKqiYjsROgiogDKsaJA9gtk40/yqfo1TGP5uzpIAd1DFEA55nYQrrZ9egRdRRRAYTvwHpsAFLYD77EJQGE78NmTkfTd2dkfq59PbC8NbGE78N6T3zlb+sr20sAWtgN8vdwCftf2ssAetgPvPV1uAt/YXhbYw3bgvSfP6BeC7QArPcOh7SWBTWwH3ntKvxAB2wGWPUP6hV5jO8DX9AsRsB2g6RnSL/Qc24H36p4h/ULPsR3ga/qFCAxvBwVXO+ihp/QLEZjdDqZCTG2vD3ame4b0C71nZjuozlsUTnJOY9pDX1MfIDC0HdSnMEMvPaU+QGBkO4jUBRKjLAij5vJHo+ZMZqMolHfrc5llUdVlCKOR+mfl70cRnQmbZM+Q+gAmtoPmemiL85uq8xunuv3HIlIXVo+DkToBcq4SIhLxaCyfUNTtX19SrZza/hx89jX1AQIT20Ecy8YeF00UTOoznasv/liMRSJvDCf6h7oOQiQmpShL2fyj1WcPbH8OHvvP/wvbS4Au+KN/cfhrVBlQRcFAlGkYRPpaKDIK1OXUB1UwDPTVkeSz5BPCtNSXTSuEGGdBkYiSMyKf3PMX319ezefzP/kv5T9Xl9+/eG57iWBDNBjG6uv4299T38vxcHDAdY5Xo6CsroEU6dYfi0mg74urH4V+QPdDpvoJ9bMXP3EiL19dzh9w+eql7SXDKY3SWDwgTve8aMlKFGTNNZASdXG0uLp48uqPqJl9oIYXQt1rkMZVWOAkXr+40g1f9wRqdQ9B3vnite3lw2lkg0Q3fN0TqNU9BHnnYJ+O+koURMtkGT4WBdUfqUsoLi64LMsK25+LN57r/sDV9c29Jv/65lrHwSWVggci3R9I8uJek8+KXMdBvHulsB4FcW1LFIyrKKh2JBRMTTgRHQS314829ufXt4SBB3QQlPmjjT3Ky33CYCUKRtUFU2sPR0FU/1GqyompvpFTIJzE6zeqQ3Cz+Uk3qmvwhjLBYdlYdQi2HDNUqK7BeLcyofpur77vRT0AqCcWPRwFetiwGjNg2PCkXt1uDwJFhcHtK9tLi2NJy+1BoKgwKNNdXrkU46CJgrSaL1TUexAeioJS7Uio9jametdjlq/1JXAcr9+2b+AqNN7SMXBSNmnfwFVoTHboGMiWPGlmG4Zq9lA+qToHD0ZBUopEFSpT9WwVO2NR9xRwTD/c7tLtV6XE7Q+2lxnmTctduv2qlNhhMrCKmaQZEAzHeirxWNUMD0ZBPFXtP68Wpno2kw2P75Vs2i1qg6UbGR0UCc5Jq255e0UpxA5FQjaNlocjZdO0/m1UHYq0+iNSA4SjQbjypynHIx3ftezw7zh96KUsKK5tLzfMUj34HYvx0UQcZSgvYl+BDSoJ3u36R+/IAteoJNj5izc8ThYQBTZc79mm9/07dFO+Z5ve9+82Igos2L9FkwUu2b9FHyMLRjE7C07t1QHt+ZqxQ2ekB7TnfKexQ3TTD/P52/3/+u18zj5FJ0xFdaDwfiacxbj3Xt/uMWK49O7t/Ja5Rg7Iyj1GDJfCCScV6TvZlA86CcHL20M6FegK2ZQPmtI7Kg/pVMC+V/P5TjOL7rthuMABaXNukL0VDBf0miwP3hz6Gm8oEXovqw4UOsiYEqHPTDRjE3ECu0w0YxNxAlueG+ncyyKDc5n0WmSkc582JxtB/1zOr0y8zNX80vaa4BCxPsH4wRImCPbV84PHDCs3dAt6LTp4zLBS0C3oK0OdAroFPWeoU7BbtyCc2l5tLLw21CnQ3YJ+70QY1efebU7pvXIyXvdlhjoFulvQdvQxS0y9KQ73Yn5r6qVu5y9sr81BFmflL6vT5Cwu/mF7wU7B4LUFytanGQonh01pgklX5g4rvDZValgio2AQRQN1Jr2sulldAsSLrTUxd1hh3r7UCJmE0BkvDQ72PZ/Pe30Nteak+2Giv9Yiny68MTI42BdxRuI+emXym/yq37OPF9ffGOqvtYEflUElNTVoqCQbJigMmkscDVVFoj/xVKSjvGxOZQpLLk2eduS63/sQFlEwrc/R71EUxCZPO7Lp6kWL4clEncK8jgJ9mSUhck5gapGx/QfKzXxue30OsYiCqtgdi/EwEWM/dpIb23+gbLym4biamVxVEXUUyBTI1GXZOJTJnudGdwC+7vcsozoKwmlZX6GjknjQcY3a7wBsIds08DCt3irXhzM3UaBzSJYMdAusedFqqGCqKrlpiyde9Xp3omwPkzjW1wxVw16DeDzIRrkX1+IZtB0qGLXat5ps2p1Y7WssdfNvokDnUMQ8RYu+b1PdJ9W3Y4uTUlzOv7e9RgdYzCuIV7+cDO5w765h23GRSasoiDfF51BtSdNq9LCOgjqHjFYp2E2btluIcpBlgzb/nVolS2fJKMjTdHinZA19OGFf3LLrM2g342pjsmSqE5BXw5R1FNTPThgssKdFjz4sq/9AbS5q367e6Kq6g5rfKVljDzbQpN0EwawUrY4w2FxvTOSblVW+NgVC9eoUCBa1GOfL0qolFC1m3Dzv9S6EOgqy+vzfaaonynixgbZcx7GIW+1i3Tw7qxCTaZ0VTRRE1f1MTbJnhyH/uMU24EQUqPP5V2PceoWNTr7pqnZRoAb/DUSBLLmanlYTBbG6VOrEh0+6s1pHwWjY5lrWbkRBfVKukRDjooi9uIZ3qyjQpaKBKFBZW++7XMwrELm60/3uV2e9axkFegdbi9FdGQUHXE7BtsXOrLQZNNCHKXowBy5s1Qr10H/bKAg3P1y/SDNsqD9qT2ZzddMuUZA4HwWjOK5q1TCOdf81HEwmhftB0DIKovXh/i1P3fixpWnU/JJVL5kNOAThWMJWm3DLKBhFxbjNxIJ+FwgeaxMF+qABIwXCHV4d7HF64aTVFa92GDZsM75LFPRUiyhIRRIGREH/ROW9iTHNXsFVuxw0kGyfhkIU9FSLKJAlojq7WyLKeGvLJQq6ZHTvv+1D/31aTDEaxNU1LpqpRpv0e4qRx1pMMRIrtj239SENGlFwag9FQYuJx1k9EbdocdxYvycee6zFxOPq5G5RLibR1h5E60MaYFIRD4NpHtfj+8N4FOkbuhc3jIssjcdT9UisjiSJ7+wGaNN2h0JM0uGkzdHk/T4cyWPt226rr/C2hzTAKPnfZqwPqx+oL+1YqAkbqerP6VuqCcvHRk0H705zbtOjD8cPHK/3sH4fpOyx9j36VlHQ8pAGmKWafpmmZdXMYzUnZhotokDdyvVD0UCdwffOztt2py4JZa8jnW5/Xs9PXeKx9qcuidLt80u8OGyjg2QUjEP93a1q+Xg5pTPQt9QOQD1N7OFhXU5oBuV0JzTD0TSngxrp4+oXp6usoyCpH8oeiQJOcwrlZKc5xfGkzSRPvbNvcXB9HQUrB4A9GAWc/BzKyU5+juNZ/EeM94kCLokChUuiOOCwXgEXSoNm50JpMCmtz73XjBXsGAVcPhWKlcunwii1B0H9HOqxwc1R8EC/jYuqQ7FyUXUYlepzCRSJqK/j8WgUyLQup/f/I12a6tZfsf+gz2JT3fpWJ0LFEaRCX8WjPtvOpiiQ/YYHJoQ+N9QtuGF+Ua9FhroFBfOLbJFREBbjMq2vT9scZdAcg1Df0KXBNI8fmBtuqFtAp6DnDHUL6BRYc/AhnrJbYGA6wCs6BT0XGbl8aUqnwJrDj/Z+M789eLzv9e38je1PAocZi/Lg8b76bNGw4fAoMNGMTcQJ7DLRjE3ECfZk4Bwwrw4eObwxUmTArvTgkcPCSJGB/WTR4bM8385vD5oy/PJ2/tb254DDTarLye9tVLa53jY6TJYIbw+4gMG7t5QHTpAlQqsTZT8inFAe9N4P80O+1t/O5z/YXgOYMG1ztYtHTXy4/rzzXs33PyzpmoECZ6Ri/8OScgYKnHC9dxbs/5fonnzvLNj/L9Et+7ZoksAt+7ZoksAdsk3vPnb47i1J4BjZpncfOwwnJIFDVBbsuE/xJUngHpUFO+5THJEEbnk1n9/uNNfo5pYRQwelQpQ7zTUqSkYMHfODbNpvWs8QeP1GRgd7ER00lU173HqGQDaW0TG1vcww67Xs8N+2/J5/JXPjLTOLnJRN1HV22j1XXY1nwswi96gGftWiSri5ah8a6B/VwJMWVYI6fVbb0EC/qG7/1jBQQbBDKYH+Ud3+rWGggmCHUgI98/xStvPb60fPRPL8WvYc5pecqcRxUazPk/fomUiivFRX1eVMJS7TYTC/ur65973/+uZadQgIAi/oMBBJXtz73s+KPBEEgQ9ev9Atfn51+f2L57UX31/Wd76gNPBENtAtXiTxcBDVBsO4vnNAaeCFl6903+Cuy1dcDc0ro1T3De6KU66G5pNlT6DpIdheItiw7Ak0PQTbSwQ7nvxX/9Xv214GdMDZGV0Bv43Ozv7Q9jKgA87OzmwvAqySUfCd7WVABxAFviMKoBEFviMKoBEFviMKoBEFviMKoBEFviMKoBEFviMKoBEFviMKoBEFviMKoBEFviMKoBEFviMKoBEFviMKoBEFviMKoBEFviMKoBEFviMKoBEFviMKoBEFviMKoBEFviMKoBEFviMKoBEFviMKAAREAQCNKAAQEAU4Pz8P3p+fv9c3Ls7Pf7S9QLCDKPDdbDYLPsxmH/WNn2azn2wvEOwgCnynoiD4OJt9UDfkzwvbCwQ7iALf6SioewOyd/Cz7eWBJUSB73QU1BWCTIRPtpcHlhAFvtNRUFcI8t/PtpcHlhAFvqui4JPqD3ymPvAYUeC7Kgp0CrynPvAYUeC7KgqCn2Vt8Iz6wGNEge/qKJAVwnvqA58RBb6ro0BWCB+pD3xGFPiujoJAVgfUBz4jCnzXRMFT+csz2wsDe4gC311cVFONQ/nLF9sLA3uIAgABUQBAIwoABEQBgicj5ezsTP14YntpYAtR4L0nv3O29JXtpYEtRAG+XibB79peFlhDFODpMgq+sb0ssIYowJNn1AcgCrBSIQxtLwnsIQqwrBCoDzxGFGBZIVAfeIwowKJCoD7wGVGARYVAfeAzogCLCoH6wGdEAYK6QqA+8BpRgKCuEKgPvEYUIKgrBOoDrxEFUL6mPvAdUQDlKfWB74gCKLJCoD7wG1EA7WvqA88RBdCeUh94jihAEES5+Pb3xLiwvRywiCjAdCJq5dT2ssAaosB7Q5kBySCKilj+koe2FweWEAWey2SXYDKtfh+p30e2lwh2EAV+m5ZrPQHZQygZMfATUeC1e03/TjTAH0SBx7IHCoKMIsFTRIG/HukBUCT4iSjw1qNNniLBS0SBpzYVAhQJPiIK/LTlm58iwT9EgZe2NnWKBO8QBR5qUwBQJPiGKPBPy298igS/EAXead3EKRK8QhR4ZpeOP0WCT4gCv+z4TU+R4A/vouDdO9tLYNPOTZsiwRveRMHzF99fXs1rV5ffv3hue4lOb58OP0WCL7yIgpevLucPuHz10vaSndSe3/AUCX5wPwpev7ha9gRqix7C1YvXtpfvZPZu0hQJXnA9Cp7r/sDV9c29Jv/65lrHwaUflcIhHX2KBB+4HQU6CG6vH23sz69vPQmDA7/ZKRLc53IUvH6jOgQ3m590o7oGb1wvEw5uyhQJznM4Cl7dbg8CRYXB7SvbS3tMJjr4FAmuczYKXr9t38BVaLx1t2Ng6BudIsFtrkbBD7e7dPtVKXH7g+1lPhJjTZgiwWmORsEr2bRb1AZLNzI6nCwSTHbsKRJc5mYUXMsO/47Th17KguLa9nKbZ/ibnCLBXU5GgUqCnQ81eOdiFhhvuhQJznIxCq73bNP7/l1nHaNDT5HgKgejYP8W7VgWHOkbnCLBTe5FwasD2vO1S2OHR2uyFAlOci4KfpjP3+7/12/nc0f2KR6zI0+R4CLXouD17R4jhkvv3s5vnZhrdORvbooE97gWBbIpH3QSgpe3h3QqOuPoTZUiwTmORcGr+XynmUX33TgwXHCKDjxFgmvcigJZHrw59DXe9L5EONE3NkWCW9yKAhPN2EScWHWyJkqR4BSnouC5kc69LDJ6fC6TU3bcKRJc4lQUXM6vTLzM1fzS9prs7cTf1BQJ7nApCp4fPGZYuelvt+DkTZMiwRkuRYGhTkF/uwU2OuwUCa5wKApeG+oU6G5BH3ciWPqGpkhwg0NR8GJ+a+qlbucvbK/N7qw1SYoEJzgUBVfmDiu8NlVqnI7NjjpFggvciYKXBgf7ns/nPbuGmuVvZoqE/nMnCl6Z/Ca/6tnsY+tNkSKh99yJgkuTpx257tU+hC500LuwDDiEO1FgbP+BcjOf216f9jryjax6JlPbC4G9ORMFz43uAHzdo1lGBoqDtHbYy6hIGtr+NLAvZ6LgRauhgum4FHHR4hv0qi+7E410zEUtNrAsme1PBPt5KAqePLG9VHv4vk11X9Sb/PbN9XL+/f07O/jBGCkOIiFM9AoCioQ+uxcFT55+/TtG+glPz8/f618uzs9/DD6dn3+u/jmSB9vuHXKTL9OsKEW+9an3k+WAD2b9ozDJzJ6DSJSmFogiobfWo0Bu7s/ODJUMH2azj/qXn2azn4Lz2eyi+udI2vTocxGr/oBMhK096jv1xmEfzPpHYU5oaNQ+PbQyWKGLBPtjmNjZShTUm7upKAg+zmYfFj+PHgUtxvnCJgIGabTtuc9XdiEc/sGsfRTGhImhPQcmo0D3VEy+HE6kiYLl5m4sCuqvwOorsQtRMBUT2X62poC2iAIjH8zaR2FMLoSZaUWxGBbjJDX1XT4QIjW4mjgNHQVrm7uxKKg3fNkMPnUjCuSX30h2X5O0xSB3FQWmPpi1j8KUzFiLi+vRVFOTE8ZCTM2tJ05DRsF/vb65GxP8rLvD8t/Pq1FwlPc6O/tv/qRFFIxLIeT/xPaegYyC//apsQ9m7aMwtsqTbw1tBOMyyaeFLDcGZl4vbPMJo2OOGQWf1Jfg59ns5+AEUfAvt/cKYr0DIZDb/Hjr52I4ClY/CmOrPPnW7PDcUBVQRhAFPdQUCL823zirTf991Sk+ehT8yfYoyOv9XJEQW9vQokAw8sGsfRTGVvkPvt0eaTttCy32rLSStpm5gY5ZGTZcbvSm5h+qDvEz3SnuyFhBvYUm23vCq8OGJj6YlY/CmNRYj742MTP4UIgWEzfQNes7E//UbBTIbvH7qlPciSiQm2j1y2T7pnpnZ+LBH8zKR2FObGakL0urnQeZkX59KDtfCRML+ufeFKM/NRgFX2azj/WgeRemGEX1zrdsrylGh30wKx+FOaamGCVVNA5EcvhrjZhi1FMPTDz+yczEY0V2ietO8dGjoM3E41jPNgyHLTb5hyYeH/TBLD8Kk8xMPJbdpeFolJcG6o2Cicd99eDhSF+ZevWns6ZTfPQoaHM4UqT2nQ/LNiX2w4cjHfDBLD8Ko8ycqyCp5hUc/G2uigMOR+qp4x6kHF5cXHzRv32+uAirf46k1UHK03HbqTTGD1JefhRmmTl70DQvy/zgVxlxkHKPOXO+gpanLsmG4+0HIHh36hIzKA56zZko4IRmllEc9Jw7UcBpTq2iOOg7d6KAk5/bXABOWdJ77kQBl0SxfEmUqe3PAAdxJwq4UJrdC6VRHPScQ1HA5VMtXj6V4qD3HIoCLqpu76LqU9vrjoM5FAXBpalu/VWv9h8s2SgSKA5c4VIUPDfULbjp0fyiO05eJFAcOMOlKDDVLehrp0A5cZFAceAOp6JAdgsMTAd41d9OQXDaIoHiwCVORUHwZn578Hjf69v5G9vrcZCTFQkUB05xKwpMNGMTcWLXiYoEigO3uBUFqnN/4MjhjZEiw65TFAkUB65xLAqCt/Pbg6YMv7ydv7W9DgYcvUigOHCOa1EgS4S37/b/83dve18eVI5cJFAcuMe1KAh+mB/ytf52Pv/B9hqYccwigeLARc5FgRou2PuwpGsHBgoWjlYkUBw4yb0oUO15zyzY/y876UhFAsWBmxyMgr1btGNJcJwigeLAVS5GgWrTu48dvnvrWhIERygSKA6c5WQU6CzYcZ/iSxeTwHiRQHHgLjejQI0d3u401+jm1qURwxUmiwSKA5c5GgXBD7Jpv2k9Q+D1GxkdjuxFvMdYkUBx4DRXoyB4LTv8ty2/51/J3HjrxMyiBxkqEigO3OZsFFQN/KpFlXBz1T40+slEkUBx4DqHo0B3+7eGgQqCHUqJnjq4SKA4cJ7LURAEzy9lO7+9fvRMJM+vZc9hftnjM5W0dWCRQHHgPrejoA6D+dX1zb3v/dc316pD4EUQBIcVCRQHPnA9CmSTf6Fb/Pzq8vsXz2svvr+s73zhemmwtHeRQHHgBfejQHr5SvcN7rp81bOroR1ozyKB4sAPXkSBsuwJND0E20t0evsUCRQHvvAmChrvDjixSf/tXCRQHHjDuyjw3I5FAsWBP4gCz+xSJFAc+IQo8E7rIoHiwCtEgX9aFgkUB34hCjzUpkigOPANUeClrUWC7jnYXkqcElHgpy1Fwskvzg7riAJPbSoSTnk1ZnQFUeCtR7/5T3T5VXQLUeCvR5o8xYGfiAKPPbSXgOLAV0SB1+7NHaA48BZR4Lc7MwopDvxFFHhutSCYUhx4jCjwnuwJiLiIokEiKA48RhRAFQmVydT2ssAaogBBUIxVEOSR7eWARUQBtLMzBgn8RhRAOzs7s70IsIoogEYU+I4ogEYU+M6XKAjZSbYZUeA7T6IgnEzIgo2IAt95EgVRKaZ37srS1PZSdQlR4DtPoiAY3dtnHglhe6G6hCjwnS9RcB9RsIYo8J1zUVDEw2Cax/XhdcN4FOkbcaxvFVkaj6fqkXgiRBxzFF6DKPCdc1GQiljPok0GapwwFqn8PQ0C3QWIxXCiHxupO0T1CDSiwHcORoEQZZqWVTOP5Y18Gi2iQN3K9UPRQIgo4kT/DaLAdy5GwVj2B8KxKEPd+KvW3kSBmmg/FJOAsYI7iALfuRgFegBgJNTuw7i5rkcdBUn9UEYU3EEU+M7FKKgmE5WqDIib0YA6CtL6RkQU3EEU+M7BKEiqX2KiYBdEge8cjAJ6BfsgCnznYhRM9YrVYwVEQTtEge9cjIKx+jnUY4Obo4Dz9iwRBb5zMQpEUhRJdU3wDVEgK4hyyryCBlHgOwejII7VPMIyr2cbVnc/EAXqpN/Dfd/GOUSB71yMgrAYl2k1djhsjjJojkGob+jSYJrHRAFQcTEKbC8C0ENEAYCAKPDe0/Pz9/qXi/PzH4NP5+efbS8R7CAKPPdhNvuof/lpNvspOJ/NLmwvEexwLgqyiNkCO/k4m31Y/CQK/OVcFGBHujfQ9A6IAn8RBb6rKwSZCJ+IAp8RBd77WVcI8t/PRIHPiALvfVL9gc+z2c8BUeAzosB7OgXe6/qAKPAYUQBVGzzT9QFR4DGiALJCeF/VB0SBx4gCfJnNPlb1AVHgMaIAgawOqvqAKPAYUYDg6ayuD4gCjxEFCMKLi4sv+rfPFxeh7aWBHUQBgIAoAKARBQACogDBk5FydnamfjyxvTSwhSjw3pPfOVv6yvbSwBaiAF8vk+B3bS8LrCEK8HQZBd/YXhZYQxTgyTPqAxAFWKkQuEKMx4gCLCsE6gOPEQVYVgjUBx4jCrCoEKgPfEYUYFEhUB/4jCjAokKgPvAZUYCgrhCoD7xGFCCoKwTqA68RBQjqCoH6wGtEAZSvqQ98RxRAeUp94DuiAIqsEKgP/EYUQPua+sBzRAG0P/oXtpcAdhEFnosGwzgRQnz7e/KfJB4OIttLBDuIAo+N0lg8IE5HtpcMp0cU+CobJLrh655Are4hyDsHme3lw4kRBX6KdH8gyYt7TT4rch0HMZWCX4gCH+kgKPNHG3uUl4SBb4gC/2Rj1SEoNj+pUF2DMWWCP4gC76Tl9iBQVBiUqe2lxakQBZ7JJu0buAqNCR0DTxAFfpmWu3T7VSlRTm0vM06CKPBKKpt2i9pgqZDRQZHgBaLAJ7ns8O84fWgkC4rc9nLjBIgCj6gkCHf9o5As8ANR4I98zza979+hV4gCb+zfoskCHxAFvkgPaM85Y4fuIwo8MRVisv9fT4SY2l4DHBdR4Ies3GPEcCmciJK5Rm4jCvwgm/JBJyEYlYd0KtADRIEXUiF2mll0X8FwgeOIAh/I8mB86GuMKRHcRhT4wEQzNhEn6DCiwAORkc69LDI4l4nDiAIPxCIx8TKJiG2vCY6HKHBfdPCYYaWgW+AyosB9hjoFdAvcRhQ4LzPUKdDdAnYiOIsocN5AlKZeqhQD22uDYyEKnJeYO6wwN1VqoHuIAteNDA72RUJwDTVXEQWuS01+kyfMPnYWUeC62ORpR3L2ITiLKHCdsf0HSiGE7fXBkRAFjouM7gDM+jTLiB2fOyEKHDfYPlQQiYWt7TzZsDtxFMfxovmF8sajQ4zD+G5PpYiHm99YvviOa55u7g5tfUffEAWOG26v7neJglgMN77OYlSx2PRq8b3Rx3TbYkY7lyaTzYMkW9/RN0SB4za13VoYVdIWuwo3JYuKgkUXZGI9CsLN06GIgjuIAscl7ScIxi0ax6Z6I1rpV4yE9SjYgii4gyhwXPtxvqjNUze1SPnYuOmUD+Wv9csN8nicLsYQijifLqJAPjSsHmka5nQYx8Pp+utmeTzImjcepfF4dQxgGKerv4TpOB6E9R1F8yZ5Ea7eo0cxVt8x7c9Y6PEQBY5rHwVtOgXboqAQomqHpagPaQ5jPQhRXbQ1HCTqxriKAnV9d2minlY3zGE1ZLFa00S5vmtQvfGgerXlKEBaH2FRHXQVlfpxfa3o6k3q99fnbm8SSC9Z9Y7hA+/oKaLAca2joFWnYFsUhPUBS4Uow+r1ZEtMiryuFtSFnNO0rIcX1cUYp3kpkrBpmIvHl/WDfEURF7o9V2+RpMVk5QnNcZcD+Y7qpGvlcCr7I+Ogafj6/QcT9ehDUbB4R46zIgrcFraOgkmr2jlqvvYffizIq3Okq0JBv/O0amSZfnXZrMfyr8OxbspFNUoZ6mek9eO5ejzXDbdSn0YtqqIgqc6vOFw52HJc3aX3F+Q6VtSbjuqGH1XvH+pjsu5HQfbAO/qKKHBb6yhoeYqibVFQHbCkZyLpF8zrRjtQfzetd1FUJ1KP69OmjlWb1A2zeXy0ci2mpmyZqChoDq1anelU1SSZ/tPmy72sXj9dhka2LBlWo6A5A8OIqz8RBa5rGwUtz1C0pUCoD4nWh0Dpd26OgNCNuKnrQx0FEzFOlbF6clrlQdIszKIAaFr3UL34VPXmlXJl+pD+faj+VL7uUD88WfQB4tXTNN+PgsU7lhxnRRQ4rmUUtD1v4dYo0CdK0U1Zv+LiZCeqpF/sv6sfX6gb5rhpt+NlA26Wq6ietbBsuUP1ZL3PdGWuVFw3/LWTrdyPgkVStJh+4TqiwHEtm3jb0xZujQL5zVyMdLd7rVeQ3e8VJGJYz22K2vYKClE2f7I8wEC+W1i9oxpCrB8eLXoFK1MO70fBsLn8G0dfEwWuazfFqPXJjLdMMQrU6MBYf09XDW5cP18X5c1YwLQeK1i5CuNa5b56NsZJ/b2txwqiB0v6iSgG1bPWdgrqht+cd0mPFdQNf7SMgsHyHR94Yb8QBY5r1/NtfS7jLROP9b9lotuVbnDL2QWJbnB6Yao9CGndDHM1Zagaz6/7/enK0ZR59XtW7UEoqy/50SRfOexQ5sCkasl18IRxHtVRUNRtfKLeueo7qA5GdOcdh5zAlShwXYvDkXa5wsGWw5HUj6Q+EqF6TfltHk/Vjnt1I1c7+YukLvUTUeYjNYNo2uzlHzaPL98kk3+aV9OMqgWdFJl8xuoV4kM16ah6spp2MJrG+rpwcTN5IY6m4+pC0olIBur35byCxRJ5Xx8QBa5rcZDyLhc42FRvRIsJgbpdVa1/lKwM84W5ng0YV620eUi1+3ru37i6Z7zS0KfVnMRh9eL15MD1S0Dmi+woyrtzC0fVnzfzkJQ8XpltGN9/R08RBY5rc+qSLE1bnr1046lL6lMKhPVZC+rzFYSDuJzkzV+FaTkuwvpggDCVDw31Q83ZA4pxkozvnGcgipPhqDlfQZRPyvEgu/OExakRRsNYxAN9q3kT9f7N+mWDeDyQj4w2v6OXiALXcUIztOJHFKjz60jDtW+TdMNpdhzCaU7Rih9RsJh7Ug7W7vPh2FROfo5WvImCQRQN1BDRol8w8SQKuCQKWvEmCnRzCJcD4Kko/YgCLpSGVvyKguqoFSUrxdSTKODyqWjDsyiYNiPg6thXT6KAi6qjDc+iIF9MiS8zX6IgiE1169vPREL/eBUF4bSew16dd8uXKIgMdQvaT09GD3kTBZM4VjsQ9FT0+rRb3mzZhroFdAqc5k0U1Ge0COubKhG8iYLIyNE2qTefl5+8iYI8TYfNQTFJdfSKP5v2+M7xO/vIytVzg8E53kRBdYysPq/toCoXYvXDj+NQTDRjE3GCDvMqCjKhRw1XzpDnyzza9OCRw8Kbz8pXXkVBfUqcqDprbqqqBl9KhEk9YLqvUbl6+jE4yK8oWO8o+zNWoNd8csDZOcIJ5YHr/IqC9VFwn6JAzbM84Gt9wmlAnedHFIyaUxOEcbyseP04X0EjFfsflpQzUOA+P6IAgW7Pe2bB/n+J/iAK/LFviyYJvEAUeES26d3HDsMJSeAFosAnKgt2HB8ZkQSeIAq8kgpR7jTXSF1YgBFDLxAFfpnKpj1uPUMgG8vomNpeZpwEUeCZTHb4y5bf8+r6ZhNmFnmCKPCOauBJiypBXUmwbWig/4gC/6hu/9Yw0Bc5bV9KoPeIAh9F+oRO+aPzriN9mdPYo3nZIAo8pcNAJHlx73s/K3J9hWOCwDNEga+yQXVN8yQeDqLaYBjXdw4oDXxDFHhslMbiAXHbS6zDJUSB55Y9gaaHYHuJYAdRAO3sjK6A34gCaGdnZ7YXAVYRBdCIAt8RBdCIAt8RBdCIAt8RBdCIAt8RBdCIAt8RBdCIAt8RBdCIAt8RBdCIAt89+e67r2wvAzqAKAAQEAUANKIAQEAU+Onp+fl7/cvF+fmPwafz888r/8BPRIGPPsxmH/UvP81mPwXns9nFyj/wE1HgpY+z2YfFT6IA8JXuDTS9A6IA8FVdIchE+EQUAB77WVcI8t/PRIHvzs/Pgy/yH/WfXv1k5Ngrn1R/4PNs9nNAFPhuNpvpDeLnUG8LP9peHpyUToH3uj4gCjynoyB4Npu9D36RhWNoe3lwWqo2eKbrA6LAc1UUyC+H2Zef6z1L8IjsEL6v6gOiwHNVFKg+4kfKAw990f/hVX1AFHiujgJVIlAe+Ej9h9f1AVHguSYKPszUcAG883RW1wdEgeeaKDinV+Cn8OLi4ov+7fPFRbjyDzxTR4H6bmCsAPDXcg/C54/sQQC8paMg1PMKnlIieOzJaPTE9jLAptXZhjIQzm0vDyzhjMe+U1FwUe9OUmXCU9sLBDuIAt9dXFyoAePqKKTFL/AOUQAgIAoAaEQBgIAoQI3TnPqOKIBGFPiOKIBGFPiOKIBGFPiOKIBGFPiOKPDek5Eio0D9YBa6t4gC7z35nbOlr2wvDWwhCvD1Mgl+1/aywBqiAE+XUfCN7WWBNUQBnjyjPgBRgJUKYWh7SWAPUYBlhUB94DGiAMsKgfrAY0QBFhUC9YHPiAIsKgTqA58RBVhUCNQHPiMKENQVAvWB14gCBHWFQH3gNaIAQV0hUB94jSiA8jX1ge+IAihPqQ98RxRAkRUC9YHfiAJoX1MfeI4ogPaU+sBzRAGCIMrFt78nxoXt5YBFRAGmE1Erp7aXBdYQBb4Lc5kBySCKilj+koe2lweWEAWeG8kuwWS68vvI9hLBDqLAb0W51hMYyiKBEQM/EQU+U8XBetOflhQJniIKPPZQQZBRJHiKKPBX8XAPgCLBT0SBr+4XBw2KBC8RBZ7atLeAIsFHRIGfis3f/BQJ/iEKfPR4cdCgSPAOUeChNlOJKBJ8QxT4p2j3jU+R4BeiwDfbi4MGRYJXiALP7HKcAUWCT4gCv7QsDhoUCf7wLgrevbO9BBa1Lw4aFAne8CYKnr/4/vJqXru6/P7Fc9tLdHr7HIRMkeALL6Lg5avL+QMuX720vWQntWNx0KBI8IP7UfD6xdWyJ1Bb9BCuXry2vXynsntx0KBI8ILrUfBc9weurm/uNfnXN9c6Di79qBQOOUMRRYIP3I4CHQS314829ufXt56EwZ7FQYMiwX0uR8HrN6pDcLP5STeqa/DG8TJh/+KgQZHgPIej4NXt9iBQVBjcvrK9tMdk4vSlFAmuczYKXr9t38BVaLx1t2NwYHHQoEhwm6tR8MPtLt1+VUrc/mB7mY/j8OKgQZHgNEej4JVs2i1qg6UbGR1OFgkmr21AkeAyN6PgWnb4d5w+9FIWFNe2l9s8Q8VBgyLBXU5GgUqCnQ81eOdgFpgrDhoUCc5yMQqu92zT+/5dZx3jwmcUCa5yMAr2b9GOZYHh4qBBkeAm96Lg1QHt+dqhsUPzxUGDIsFJzkXBD/P52/3/+u187sg+xWNeFZkiwUWuRcHr2z1GDJfevZ3fOjHX6EjFQYMiwT2uRYFsygedhODl7SGdiq44XnHQoEhwjmNR8Go+32lm0X03DgwXHLM4aFAkuMatKJDlwZtDX+NN70uEIxcHDYoEt7gVBSaasYk4sen4xUGDIsEpTkXBcyOde1lk9PhcJqcoDhoUCS5xKgou51cmXuZqfml7TfZ2ouKgQZHgDpei4PnBY4aVm952C05XHDQoEpzhUhQY6hT0t1tgo8Ou3zOzveY4nENR8NpQp0B3C/q4E8HSN7QqEqa21x0HcygKXsxvTb3U7fyF7bXZnbW6XUXQ0Pba41AORcGVucMKr02VGqdjczSfIsEF7kTBS4ODfc/n855dQ83y8B1FQv+5EwWvTH6TX/Vs9rH1nXoUCb3nThRcmjztyHWv9iF0YaoPRULfuRMFxvYfKDfzue31aa8j+/YpEvrNmSh4bnQH4OsezTIyUhxM83x68GtQJPSZM1Hwos1QQZgnIknbfIFe9WV3opHiYCAbsRDJwMSyUCT01ENR8OSJ7aXaw/ctqvtMb/GyN7395S7n39+/s4MfjJHiIJMxkA4TIQ5uxhQJ/XUvCp48/fp3jPQTwvPz8wv584v8+Tn4dH4eVP8cyYNt945clHkWxUJs70/fT5YDPpj1j8IkM3sOchGrH5M2GbkFRUJvrUeB3NyfnZkqGd7PZj/L76sfZ7Mfg+B8Nqv/OZIWPfqwrDJAJsLW79E79caBH8zaR2FOaGjPQZ2NhSgPfy1dJNgfw8TOVqKg3tyNRUHwbDb7FHyYzT6GJ4iCFuN8zaY+EiLa9tznK7sQDHwwqx+FMWFiaM9BIlL1IxWJicWSPZXY4FriRJooWG7u5qLg82w2+/LzbPYh6EYUjJtNtBRbB8gWUWDmg1n9KIzJ21Q6bQxFkumRFDNd+4GoogW9oqNgbXM3FwWqX/yx7hN3IQoKIfR36LTFplpFgbkPZuWjMCUz1uLCWHbqZcc+NtRnGQsxNbmmOAUZBf/1+uZuTKD7xXWfeBkFR3mvs7P/5k+2TwSoewNywx9ve6qMgv/2qbEPZu2jMLbKk29NbQXVrpXS1H7AsEUFhq45bhTI6nj2Xr/P0aPgX7aYE6Sq2CKVFfb2nrDxKFh+FMZWefKtoW9x2aMv81zGwaETCxpEQQ81BcKvzTfOQLf9U/UK/qRFFGRjPa1gku9QIBj5YNY+CmOr/Affbu3ctBLW0TisC6iDpQZmKODUVoYNlxu9qbGCpzOlM2MFUjZMxgNZGu80bGjig1n5KIxJDX2NN2MomaFhyKLVJC50zPrOxD81GgVq2PziY3f2ICyUO+9MPPSDWf0ozInN7EzMxaT6xcQcI925SJhY0D/3phj9qbkoeKaq46cnmlfQYorRNK461EWL/ef3pxgd9MGsfhTmGJpiFAkxqn8eXuIzxaivHph4/JOZicfBp2qKnWwF5yeIghYTj8NSjxEMyhY74R6aeLz/B7P2UZhkZuJxLCaDLBtMDEwNYuJxbz14ONJXJl75QvWJg6pv/PT4UdDmcCRZXE/UDoQW31oPH4605wez/lEYZeRwpEjUDu4UcDhSfx3vIOXPFxefl7/If4LqnyNpc5ByWO9BaNF0jB6kvP5RmGXkIOXRWCZKOT502J+DlPvMmfMVtDt1SViMh9MWSeDdqUtMoDjoNWeigBOa2UZx0G/uRAGnObW/DBQHPeZOFHDyc5sLQHHQe+5EAZdE4ZIoOIA7UcCF0rhQGg7gUBRw+VQun4r9ORQFXFSdi6pjfw5FQXBpqlt/1av9B0s2igSKA1e4FAXPDXULbno0v+iOkxcJFAfOcCkKTHUL+topUE5cJFAcuMOpKJDdAgPTAV71t1MQnLZIoDhwiVNRELyZ3x483vf6dv7G9noc5GRFQkcmPMMMt6LARDM2ESd2naiJWp/hCKPcigLVuT9w5PDGSJFh1ymKhC4c9wCTHIuC4O389qApwy9v529tr4MBR//GpjhwjmtRIEuEt+/2//N3b3tfHlSO3FQpDtzjWhQEP8wP+Vp/O5//YHsNzDhmB57iwEXORYEaLtj7sKRrBwYKFo72zU1x4CT3okC15z2zYP+/7KQjNVmKAzc5GAV7t2jHkuA4HXmKA1e5GAWqTe8+dvjurWtJEBzhG5ziwFlORoHOgh33Kb50MQmMN12KA3e5GQVq7PB2p7lGN7cujRiuMNmhpzhwmaNREPwgm/ab1jMEXr+R0eHIXsR7jH2TUxw4zdUoCF7LDv9ty+/5VzI33joxs+hBhpowxYHbnI2CqoFftagSbq7ah0Y/mejYUxy4zuEo0N3+rWGggmCHUqKnDv5GpzhwnstREATPL2U7v71+9Ewkz69lz2F+2eMzlbR1YFOmOHCf21FQh8H86vrm3vf+65tr1SHwIgiCwzr4FAc+cD0KZJN/oVv8/Ory+xfPay++v6zvfOF6abC093kIKQ684H4USC9f6b7BXZevenY1tAPteXZiigM/eBEFyrIn0PQQbC/R6e1zWlKKA194EwWNdwec2KT/di4SKA684V0UeG7HIoHiwB9EgWd2KRIoDnxCFHindZFAceAVosA/LYsEigO/EAUealMkUBz4hijw0tYigeLAO0SBn7YUCRQH/iEKPLWpSKA48BFR4K1HiwSKAy8RBf56pEigOPATUeCxh4oEigNfEQVeu1ckUBx4iyjw250igeLAX0SB51YLginFgceIAu/JnoCIiygaJILiwGNEAVSRUJlMbS8LrCEKEATFWAVBHtleDlhEFEA7O2OQwG9EAbSzszPbiwCriAJoRIHviAJoRIHviAJoRIHviAJoRIHviAJoRIHviAJoRIHviAJoRIHviAJoRIHvPImCkKNstiAKfOdHFISTCVmwGVHgOz+iICrF9M5dWZraXqpOIQp850cUBKN7B91FQtheqE4hCnznSRTcRxSsIwp851oUFPEwmOZxfX6+YTyK9I041reKLI3HU/VIPBEijjmN3wJR4DvXoiAVsT4NRzJQ44SxSOXvaRDoLkAshhP92EjdIapHUCEKfOdeFAhRpmlZNfNY3sin0SIK1K1cPxQNhIii7NC3cwdR4DsHo2As+wPhWJShbvxVa2+iQJ2pZygmAWMFdxEFvnMwCvQAwEio3YexyKu76yhI6ocyouAuosB3DkZBNZmoVGVA3IwG1FGQ1jciouAuosB37kVBUv0SEwU7IQp8514U0CvYC1HgOwejYKrXqx4rIApaIgp852AUjNXPoR4b3BwFnPh/BVHgOwejQCRFkQi972BDFMgKopwyr2CBKPCde1EQx2oeYZnXsw2rux+IAnXV0OG+b+MeosB3DkZBWIzLtBo7HDZHGTTHINQ3dGkwzWOiYIEo8J2DUWB7EfqJKPAdUQCNKPAdUQCNKPAdUQCNKPCda1GQRcwW2AtR4DvXogB7Igp8RxRAIwp8RxRAIwp8RxRAIwp8RxRAIwp8RxRAIwp8RxRAIwp8RxRAIwp8RxQACIgCABpRACAgCrwXnp+fX8ifX+TPz8Gn83PbCwRLiALfvZ/Nfg6D4MfZ7McgOJ/NbC8PLCEKvPdsNvsUfJjNPoZEgc+IAu99ns1mX36ezT4ERIHPiALIEuGjLg+IAp8RBVAlgi4PiAKfEQVQAwWz9/o3osBfRAFUANAr8B5RgKczhbECzxEF3lN7EC4+sgfBd0SB956pgYKnzCvwHVHgu0/VbEMZCOdEgc+IAs9dqPIgqMqEp0SBx4gCz32+uPi8/EX+Y3uBYAlRACAgCgBoRAGAgChAjdOc+o4ogEYU+I4ogEYU+I4ogEYU+I4ogEYU+I4ogEYU+I4ogEYU+I4ogEYU+I4ogEYU+I4ogEYU+I4ogEYU+I4ogEYU+I4ogEYU+I4ogEYU+I4ogEYU+I4ogEYU+I4ogEYU+I4ogEYU+I4ogEYU+I4ogEYU+I4o8N6TkSKjQP14YntpYAtR4L0nv3O29JXtpYEtRAG+XibB79peFlhDFODpMgq+sb0ssIYowJNn1AcgCrBSIQxtLwnsIQqwrBCoDzxGFGBZIVAfeIwowKJCoD7wGVGARYVAfeAzogCLCoH6wGdEAYK6QqA+8BpRgKCuEKgPvEYUIKgrBOoDrxEFUL6mPvAdUQDlKfWB74gCKLJCoD7wG1EA7WvqA88RBdCeUh94jijorygvhTHf/p6515qkke3PBjsjCnorNdd2zcttfzrYFVHQV7kQySBaECKyauX9p3kiRGr788GOiIKekm0vDlduC2F3edbfP5bJYHd5sCuioKdSkazd7lYUhAklQt8QBT01udPWuhUFwUCUdpcHuyIKekqI6Z3btpdn7aasX8I9Xwl2EAU9dbcY71gUhAwW9A1R0FMdj4KAKOgboqCniAKYRRT0FFEAs4iCniIKYBZR0FNEAcwiCnqKKIBZREFPEQUwiyjoKaIAZhEFPUUUwCyioKeIAphFFPQUUQCziIKeIgpgFlHQU0QBzCIKeooogFlEQU8RBTCLKOgpogBmEQU9RRTALKKgp4gCmEUU9BRRALOIgp4iCmAWUdBTRAHMIgp6iiiAWURBTxEFMIso6CmiAGYRBT1FFMAsoqCniAKYRRT0FFEAs4iCniIKYBZR0FNEAcwiCnqKKIBZREFPEQUwiyjoKaIAZhEFPUUUwCyioKeIAphFFPQUUQCziIKeIgpgFlHQU0QBzCIKeooogFlEQU8RBTCLKOgpogBmEQU9RRTALKKgp4gCmEUU9BRRsIvpoP3ShKHtpbWDKOipHkdBEQ9Xbg3jwswSxPHokUcGpRBJ25cZJRM/s4Ao6CljURBGUdOEomL/b/IdoiAV8cqtWKTH+USWayiTYDJo+zJTUY7aPtcpREFPmYqCUSLqllkIZd+v6A5HgVyxfIfXmfqZBERBXxmKgoFq/nHzm4yFnVrNhvfvUBSkYmLmHdxGFPSUmSiQ7T8e6paZCVFOg6kMg2zP5dm8fCtUFEzzZoigiYJBHo/TRZVexMMoGKrqvxlZaMYU5POGd763w0LdVb9jOBjHg5V1iONElLH841EcNy+t7w6i4fKVRmkcD/SN5mnqnmFR/0UhX3VcNEunFqF5h6wYjwf7fWQdQxT0lJkoSMWg/pIeikRt6eFEDPd5oR2jYKw6I8lAvWMVBdlElycyjdRCpKW6kcfqNZo+RPW8sHreZOXF62cPq3dUBY80Hi0XREuDqF7E6gXls8WiR1R1juRfyV/rpw3K6uFQ/0UaL5cuW12EtPrD1iMRHUYU9JSZKChGTdMomy9nUe65PJuXb4VqPmWqGrB6y6qJy+Y1meai6pPIn0khHy/vR4FskuPpUD60HOXXzx6qlhtVQ4S5eqFFTRBFuWy2UXYvCspkUEyqN5yqKFF/NWiiQOVEXtTjKKlcEvmipY6KahHyahHk2+WRXJ/SgX4BUdBT5nYmLr4l9a3Rni+0WxSMVTMa69akm3hRjVdmiWptWZURYSzuRcG0elnZAhd9l+bZk/rZOiRGq1/U9SvcjQK9ezHRz0tEnAX1H1dPm4iJumdQv6heOvnmoV5U1eMI9dsO9KuMxrkDQ41EQU8ZjoJlAuw5N2i3KNA1uHzPad3E4/pbPFUvM6jHKwb3oyCvb+TLkcdUN1D9M1JNuBr2XK1zHokC3QsaqjeO9IKopzRPy5pdKTpzmrco1Z3j1UUonOgPVIiCnjIcBdFpo6Dq3pdVCqTqa7lquZH6yk3r+UCj+1EQizhVxssyZlinSPVs2a3XT4hX9lI8EgXR4s5ps0CLe6Jm9FQ3/LVFmIhxvQiJ7hvIJXKgSxAQBb3V6yiop/7Fiyhovpb1n8XNDs37USCWmldbe3a4fHyHKFjb21jfUzZ/O9m4CJEeT4y7NMl6X0RBT/W7QLjfK6gGLfVXexMV2f0okP3/qNa8Wn6nV5DWj49W3m9LFBSrC9/0CsL61e/2CmQHZm0RRnrvggNlAlHQU/0eNpzWbzW9M1YwuD9WUO/SqIbpxvdnCzXBUj07eWCKVN2Ss2q8T8bJ3ShYjBWMmntGzViBfr07Ncq9RciFqWlSNhEFPWU6Ck67M1HvlRvqJq/bV1q1/nBS91D08H+1ByGr2ulA1HsadHPOl8cwRVWrrfcg5PVuxnhcrLxf1ZKrocRM3IsCtUuwXvdmn2Oid3KoUYTiThQ0QaUXIa+ObZjsO0ezS4iCnjIdBcspRvtt1TvOK0gKtdNevVU1X0DdGKmpBuqvclV9q8f1rYlI9D7/+nllPhqlq8dKyMSIp+lyXkEyzKJxHRkrK6gbcT4dluW9KFAJkxSjgY7D6p6pmvowjZt5BatTG6pFyOuQKItsNKRAgD2mo+C0E4+ryXv5crZhPUmwauFhXs39q16jOkxqvP68lbzKqmdXcxODaXlv/l/TkrOymjJ4PwpUB0XPILx/zyi4GwXNIuh9HpN7i9NbREFPmY6C6rv6JIcjFfEwLMZlfcBBfWxBOJRF+GKmTpaW4yJcHFUQjwdh87xBXE6G07UXzIbq2cPqfAX6hdJo/f3q36bjOM1G9TEIa0ccTMdJkk/DlXuifFLGemr03cMgVhchK/Jy4sbeRKKgp4xHwekOUt57HXFMREFPmYuC7NSnLtl7HXFMREFP9fiEZnuvI46JKOgpogBmEQU95UMURJGfJxy1gyjoKR+iAKdEFPQUUQCziIKeIgpgFlHQU0QBzCIKeooogFlEQU8RBTCLKOgpogBmEQU9RRTALKKgp4gCmEUU9BRRALOIgp4iCmAWUdBTRAHMIgp6iiiAWURBTxEFMIso6CmiAGYRBT1FFMAsoqCniAKYRRT0FFEAs4iCniIKYBZR0FNEAcwiCnqKKIBZREFPEQUwiyjoKaIAZhEFPUUUwCyioKeIAphFFPQUUQCziIKeIgpgFlHQU0QBzCIKeooogFlEQU8RBTCLKOgpogBmEQU9RRTALKKgp4gCmEUU9BRRALOIgp4iCmAWUdBTRAHMIgp6iiiAWURBTxEFMIso6CmiAGYRBT1FFMAsoqCniAKYRRT0VMejICQK+oYo6KmOR8FUiNDuAmFHREFPlWKwdrtjUZCLid3lwa6Igp7KRbL2tduxKEhEand5sCuioKciIeLV252KgjBmqKB3iIK+SoVI8umiZ9CdKAijQSJEbndxsDOioLdy0WGUB71DFPRXlE5st/iHlTnVQf8QBb0WRqacnRl7KfYi9hJRAO3s7Mz2IsAqogAaUeA7ogAaUeA7ogAaUeA7ogAaUeA7ogAaUeA7ogAaUeA7ogAaUeA7ogAaUeA7ogAaUeA7ogAaUeA7ogAaUeA7ogAaUeA7ogAaUeA7ogAaUeA7ogAaUeA7ogAaUeA7ogAaUeA7ogAaUeA7ogBAQBQA0IgCAAFR4LPw/Pz8Qv78In9+Dj6dnwcr/8A3RIHH3s9mP4dB8ONs9mMQnM9mq//AN0SBz57NZp+CD7PZx5Ao8B5R4LPPs9nsy8+z2YeAKPAeUeA1WSJ81OUBUeA9osBvskTQ5QFR4D2iwG8fZBS8178RBZ4jCvx2Tq8AFaLAa09nCmMFIAr8pvYgXHxkDwICosBvz9RAwVPmFSAgCrz2qZptKAPhnCjwHlHgrwtVHgRVmfCUKPAdUeCvzxcXn5e/yH+ClX/gG6IAQEAUANCIAjwZLT2xvTCwhSjAk7Olr2wvDGwhChD8q0US/K7tRYE1RAGCwSIKvrG9KLCGKEDwZ9QHIAog/XmdBEPbCwJ7iAIEwb+mPgBRgCD4hvoARAGC4C+oD0AUQPo31AfeIwog/XfUB94jCiB9R33gPaIAyq+pD3xHFED5S+oD3xEFUL6hPvAdUQDlV9QHviMKoP2G+sBzRAG0v6I+8BxRAO3f/he2lwB2EQWee/7i+8ur+Xz+J/+l/Ofq8vsXz20vEewgCjz28tXl/AGXr17aXjKcHlHgq9cvrnTD1z2BWt1DkHe+eG17+XBiRIGfnuv+wNX1zb0m//rmWsfBJZWCX4gCH+kguL1+tLE/v74lDHxDFPjn9RvVIbjZ/KQb1TV4Q5ngD6LAO69utweBosLg9pXtpcWpEAWeef22fQNXofGWjoEniAK//HC7S7dflRK3P9heZpwEUeCVV7Jpt6gNlm5kdFAkeIEo8Mm17PDvOH3opSworm0vN06AKPCISoJ3u/7RO7LAD0SBP673bNP7/h16hSjwxv4tmizwAVHgi1cHtOdrxg7dRxR44of5/O3+f/12PmefouOIAj+8vt1jxHDp3dv5LXON3EYU+EE25YNOQvDy9pBOBXqAKPDCq/l8p5lF990wXOA4osAHsjx4c+hrvKFEcBtR4AMTzdhEnKDDiAIPPDfSuZdFBucycRhR4IHL+ZWJl7maX9peExwPUeC+5wePGVZu6Ba4jChwn6FOAd0CtxEFznttqFOguwXsRHAWUeC8F/NbUy91O39he21wLESB867MHVZ4barUQPcQBa57aXCw7/l8zjXUXEUUuO6VyW/yK2YfO4socN2lydOOXLMPwVlEgeuM7T9QbuZz2+uDIyEKHPfc6A7A13sMPISh7c8AbRAFjnuxfaggKoWI1C+jpP7lcVc7704MJxOyoA+IAsd9v7W6T4WoEmDxywaX8+93XAAZNNM7d2VpavtjwT1EgeO2tt1YiLFOgMUvm2xPlntG914yEsL2x4J7iALHbe3Ri3IQ6AQQov5lkxb1xnZEQRcRBY7bOs43GQVVAiTNL5s837ALoYiHwTSPi+rWMB5F+kYc61tFlsbjqXoknggRN09DVxAFjtsaBWpMTyfA4pdNNkVBKuKxGm5IBuqlYqHGHlL1mvrWcKIf03kjqkfQJUSB41rt/VskwIFRIESZpmXVzGN5I59GiyhQt3L9UDSQbxNltj8ZrCMK3PbOfBQ8ejkFGQVj2R8Ix6IMdePP6tcM9C3ZHwiGYhIwVtBNRIHbThwFegBgJNTuw1jkzWsG6lZSP5QRBd1EFDjutAVCNZmoVGVA3IwG1FGQLt+AKOgiosBxJ42CpPolJgp6iChwHL0CtEMUOK7VQQPto2DTFKNUVFOMm7ECoqBXiALHtTpooH0UbJp4rPYgqJ9DPTa4OQpGtj8X3EUUOK7VQQPto2BTsqh5BUlRJELvO9gQBbKCKKfMK+gYosBxrQ4aaB8Fm+qNVMSxmkdY5vVsw+Y1g7tRIPsNYmj7k8E6osBxrU5dkqbZnV8esfHUJTIKwmJcptXY4bA5yqA5BqG+oUuDaR4TBR1DFLjudCc0k1Fge2WxP6LAdac7zSlR0GtEgetOd/JzoqDXiALXne6SKERBrxEFzjvZhdKyiNkCPUYUOI/Lp6INosB5XFQdbRAF7rs0NXB4xWXSHEYUuO+5oW7BjcEBSHQOUeABQ90COgVOIwo8ILsFBq6F/opOgdOIAh+8md8ePN73+nb+xvZ64IiIAh+YaMYm4gQdRhR44dXBI4c3RooMdBdR4Ie389uXh/z9y9v5W9vrgKMiCvwgS4S37/b/83dvKQ9cRxR44of5IV/rb+fzH2yvAY6LKPDFq/n+hyVdM1DgPqLAG9d7Z8H+f4n+IAr8sW+LJgm8QBR4RLbp3ccO370lCbzgRRSMYm04aE7nGxbjZOjhifhVFuy4T/ElSeAJL6IgErVyoG+n1a1JaHvBTu7VfH6701yjm1tGDD3hSxQMomigrtehugKZEHkxzUtR2F6w0/tBNu03rWcIvH4jo4O9iH7wJQr0RX/CRKhuQV6djnPYXAPcK69lh/+25ff8K5kbb5lZ5AmvoqBu/WmqT8c58vQinqqBX7WoEm6u2ocG+s+vKJiuXs07FaXtBbNDdfu3hoEKgh1KCfSeX1GQr9QE06S6BLiPnl/Kdn57/eiZSJ5fy57D/JIzlfjEpygIp6W+3LdUxKUQY//2ICzoMJhfXd/c+95/fXOtOgQEgW98iYJJrC/4XdajA2p3Yhkd9qo99/qFbvHzq8vvXzyvvfj+sr7zBaWBb3yJgkrc9AOyaDgR3l/X6+Ur3Te46/LVQac2QD/5EgV5mg6FSO/cO7W9ZPYtewJND8H2EsEOX6JAFQO5KNdGB5Jm5ABBcHbm5Z5VLPgUBWqWoVrlNK0SYezvLoT7zs7ObC8CrPIpCmS3QE08DsuqUMiaXYwIiAJ4FQVZqfsBaXUMQuL9sOEqosB3XkWBCoFIH4pQHadIp2CJKPCdF1EwiuNqTCyM46o2GMRJnHo8w+g+osB3XkQBtiMKfEcUQCMKfEcUQCMKfEcUQCMKfEcUQCMKfEcUQCMKfEcUQCMKfEcUQCMKfEcUQCMKfEcUAAiIAgAaUQAgIAo8Fp6fn1/In1/kz8/Bp/Pz4Jfz80/6oc/yLtuLhxMjCvz1fjb7OQyCH2ezH4PgfDYLPs9mM3245id9F7xCFHjs2Wz2Kfgwm30MqygIfp7Nfqkf+MX2wuHEiAKPqV7AF9n8PwR1FLyvegNfmt4BPEIU+Ew2/Y91LaCjoM6Ap9QHHiIKvCYrAV0e1FFQVwbUBz4iCrz2QUbBe/1bFQW6P0B94CWiwGvnd3oFKgWCX2azn2wvGE6OKPCZ7ATMVscK9I8PP1YDifALUeAxtQfh4uPKHoRA9Qg+fZx9tL1kOD2iwGPP1EDB05V5BUEQ6n0K1AceIgr89amabSgD4XwRBWruIfWBl4gCb12o8iCoyoSniyj4RQ0k2l40WPDku+++sr0MsOLzxcXn5S/yH30jvGjuBgAAAOClJ6PRk+UP+OPp+Xk12fTi/PxHdc6Kzyv/wD9Pzmp/yriRXz40Y8Q/qT3I52ocefkPPPSXdRT8te0FwYnVE8yqn0QBvqmj4J/bXhCc2E/VfLKqd0AU4C+qJPhz28uBU6srhJ/U+ayIAgTBv9FRMLC9GDi56iRW8t/PRAGkgY6Cv7C9GDi5T6o/8Hk2+zkgCiD9jUqCoe2lwOnpFHiv6wOiANJvZBT8re2FgAWqNnim6wOiANJfnZ39xvYywAZZIbyv6gOiANK/Ozv7re1lgA1f9Bkq9FWxiAJIz85+ZXsRYIU667WuD4gCKP/639teAtihTnCp6wOiAMof/a9sLwHsUGeo+KJ/+3xxEa78A79Eg2GcCCG+/T35TxIPB5HtJQJwYqM0Fg+I05HtJQNwKtkg0Q1f9wRqdQ9B3jnIbC8fTozTVfgp0v2BJC/uNfmsyHUcxFQKfuGMxz7SQVDmjzb2KC8JA98QBf7JxqpDUGx+UqG6BmPKBH8QBd5Jy+1BoKgwKFPbS4tTIQo8k03aN3AVGhM6Bp4gCvwyLXfp9qtSopzaXmacBFHglVQ27Ra1wVIho4MiwQtEgU9y2eHfcfrQSBYUue3lxgkQBR5RSbDz1PKQLPADUeCPfM82ve/foVeIAm/s36LJAh8QBb5ID2jPOWOH7iMKPDEVYrL/X0+EmNpeAxwXUeCHrNxjxHApnIiSuUZuIwr8IJvyQSchGJWHdCrQA0SBF1IhdppZdF/BcIHjiAIfyPJgfOhrjCkR3EYU+MBEMzYRJ4cjjY6GKPBAZKRzL4sMi+cyGcWx/DdvNeJRxFz+cXdEgQdikZh4mUTE9tZBxpnumbS58Htqc0F7iyhwX3TwmGGlsNkt0FEQZNM2zyUK9kEUuM9Qp8But6CKgnaIgn0QBc7LDHUKdLdg07CdKtGnebx4s2kax2m08mgUDGNd64eDPB6nq1Oe4nhU/+kojcfLlxjG44H+kyoKYvX3w7imRwSywTgeTpvXisbjImyiQP71ygJgM6LAeQNRmnqpzaW6bIHj6iIKumHm1QVW9IEPoTo3mvw91iWGOgeCOuXySiuVjwk9uDmoHqoOl6hfQiVDFQW6RFlcx0U1+JF+4XoqZVGd0n2oHwnrv2Y6RDtEgfMSc4cV5htLjVS14TStz3sk23Q+nebV+EKuzqyq4yDSSyRi1WpX9nBWJ2OP1KESyaCQUTGo/mo4VU/M1qKgSJWxfo6aBTmIhtWOzkiljT5Vc1wtTrU0hvpEriMKXDcyONgn29qGnXmy7Y3ll3M4FqX8MZjor+NE5UJWpUMY62Wp90pGqxkl9N+op+vJC0PVkwmH+sTMoW7MK1GghXXrH8ehfmuVUbFIsmo5Yv2ew+XSYCuiwHWpqUFDJdnU3W5mN49WD2OMVbMc1IMMRd3Br0r54cpIoGy36keTNav5Feo3vRsFk7XDqwb1o7p+CcXqe0ZWp0P0CFHgutjkaUfyTWPzMgqq1llWgRFOh/FEN8thfSxTpptl/bAqBhatuW6vU9WnV8oqVbJCX8XxfhQMl4dXRelYDRGs9Fkmq++5eDtsRhS4zmitXGzapbfof8Sq8YXV6J7eARk3c5Z1U27ac7jyfV3/mi6v55xW12yQlUN5PwqKxVpV45FJHQXVfXn1nsOVpcFWRIHjos07AHeUbeptr/cKUlHmRVTt429CYlRHweDeotWvW4iyuapzpkcp82lUteW1KBiVTVdHLlA8iLLofq8gp1ewG6LAcYNtQwUDUX+ZhoWsv4stQ2zJht2JaT1GoMcKwrqLn9d1+6h+r2jZR1gfK9BtPFodZmiq/HtjBeFyoGBcVSxT9Wi4NlbQBJPJYVOnEQWOG26eeRfqmQDqt2ndMd/cbhbd7geoPQjVW8pv+1H1lZ9Vo/mlviRTlDR7ENRDskEvD3Ws3zesv+5Hk2Emuwg6xaJ7YwUrB1rW45ixfjSpEqLQ7zmqZxQM2YPQDlHguE1tV/7nl41zXEVBLOIiKCZb5uxuSpZUX6BZ7dfPq9eLskGy2Mcv1BBiopqybO8iH6kif3VewWIQYFKM5Guo3n0phqPR8N6woexbDKsiQlcU07AYV3E2VTMJpnE9r0Bd9SEqEuYYtUQUOC7ZMkEwGdUH+iy+xTcOLWyqN1IRx9VUwfq7Wc8IrLIjUq21LOrZhtUMwdVLtq3sGqgeqycIqF/Hd6JgMdtQVLEi9FRFvQRJ9f7VbMN4ZbojtiIKHLe5x5+Ow7qR5XVvfbL5S3TTUUEyCuQXdNkcWyC/z5M8Wpw7IFNHA0zqOmAYi0m+Olspjptb03xSjous/r2cDEeFOjahOl/B+jEI6p5sIJ8+COK6s1Ikk0HWvOcgLpPx1PZ/gb4gChy3OQpUi1tv3eXms5xviYKNb2R6dwaMIgoct338fK11FyvTfrY++Y7HoyAcV7sTxvTWu4socFu4WxTIKn647cmPRsWGXoE6HCnPS/brdRhR4LbdoiBMRBJue/I+UVCPBk4YzO8uosBxu0RBuP3CKZsKhCza9MejQcE4QZcRBY7bJQpaXEJpl/OKoVeIAsftEAV5iyOXiAJnEQWOS7aeLrxp3W2SYPshDegrosBxsdh2eZA6CoatjmYecjJhVxEFjtvedqsoUJP/q7OGbAyE7cmCniIKHLe9R1+fVnwxsX9jdGyvN9BTRIHjts/1zVK1t786jfC2XkHGJCFnEQWuO90JzdBrRIHrTneaU/QaUeC60538HL1GFLjudJdEQa8RBc472YXS0GtEgfNOdvlU9BpR4LyTXVQdvUYUuC821a1P2H/gMKLAfZGhbkHB/CKXEQUeMNQtoFPgNKLAA5GRy4KkdAqcRhT4YOXKYntTFzuzvR44IqLAByaasYk4QYcRBV5IDx45LLj2oOOIAj+0OIPpRqNSX9AU7iIK/CBLhMkB1xZXp0WnPHAbUeCJqTjka30iNl9KEf1HFPgiPeDy4jkDBe4jCryR750F+/8l+oMo8Me+LZok8AJR4BHZpncfOwwnJIEXiAKfqCzYcZ/iiCTwBFHglVSIcqe5RkXJiKEniAK/TGXTHreeIZCNZXRMbS8zToIo8EwmO/xly+/5VObGhJlFniAKvKMaeNKiSiiS9qGB/iMK/KO6/VvDQAXBDqUEeo8o8FGkLpZa5o+eiSTKS3UdVc5U4hOiwE86DESSF/e+97MiTwRB4B+iwFfZQLd4kcTDQVQbDOP6zgGlgW+IAo+NUt03uCtOuRqah4gCzzU9gT/4tukh2F4i2EEUQDs7oyvgN6IA2tnZme1FgFVEATSiwHdEATSiwHdEATSiwHdEATSiwHdEATSiwHdEATSiwHdEATSiwHdEATSiwHdEATSiwHdEATSiwHdEATSiwHdEATSiwHdEATSiwHdEAYCAKACgEQUAAqLAa1/ev3//Rf0if36+eP/+l8W9tpcMp0cU+Ox8NjuXP97PZj+HH2azj/rOX2azZ7YXDKdHFPjsy8fZ7Jfg82w2uwgC+fsHdeePs9lT2wuG0yMKvPZU9Qdk3+CT/P2n2ewn+SOUwfDF9nLh9IgCv8kY+FHFgfz1c1UhUB94iijwmyoRdHkg/awrBOoDTxEFnpMlgi4PpE+6QqA+8BRR4DnZ/vVehKCuED5QH3iKKPDbhaoPZvU8AlkhfP5EfeAposBroWz9ql/wWd+SxcL7Z9QHniIKvPajqg5+amqCL7PZz4tyAZ4hCnymZhh+CcKPTYnwTFULv9heKlhBFHhM7UlUAwMfmhJB7U6YhbYXC1YQBR57f37+k/7l0/m53qH45bz+Bf4hCgAERAEAjSgAEBAFkJ5898d/NhqN/uyP//Ar24sCa4gCBMGzswpTjj1GFCAIhnUU/Nb2gsAeogBB8E0dBX9me0FgD1GAIPhVlQS/sb0csIgogPR3Ogr+me3FgEVEAaS/0lHwN7YXAxYRBZD+g0qCf2N7KWATUQDl1zIKBrYXAjYRBVD+UkbBr2wvBGwiCqB8c3Y2tL0MsIoogPKrszNOaeg3ogDab844/sBvRAG0v/ra9hLALqIA2t9SH3iOKEAQRLmQxoXt5YBFRAGmE1Erp7aXBdYQBd4bygxIBlFUxPKXnPMd+4oo8FwmuwSTafX7SP0+sr1EsIMo8Nu0XO0JhLksEhgx8BNR4LXh3aZflBQJniIKPJY9UBBQJPiKKPDX9MEeAEWCp4gCbw0fa/IUCV4iCjyVbSgEKBJ8RBT4abrxm58iwUNEgZeG25o6RYJ3iAIPZS0KAIoE3xAF/pm2+sanSPAMUeCdrcVBgyLBK0SBZ9oUBw2KBJ8QBX5pVxw0KBI8QhR4pXVx0KBI8AZR4JF9OvwUCb4gCvyx3zc8RYIniAJf7N+kKRK8QBR44pCOPkWCD4gCPxz2zU6R4AGiwAeHN2WKBOcRBR4w0cGnSHAdUeA+M9/oFAmOIwpcZ64JUyQ4jShwnMmOPUWCy4gCt5n9JqdIcBhR4DLzTZciwVlEgcOO0aGnSHAVUeCu43yDUyQ4iihw1fGaLEWCk4gCRx2zI0+R4CKiwE3H/eamSHAQUeCi4zdVigTnEAUOOkUHniLBNUSBe07zjU2R4BiiwDWna6IUCU4hChxzyo47RYJLiAK3nPabmiLBIUSBS07fNCkSnEEUOMRGh50iwRVEgTvsfENTJDiCKHCFvSZJkeAEosARNjvqFAkuIArcYPebmSLBAUSBC+w3RYqE3iMKHNCFDnoXlgGHIAr6rxvfyPZ7JjgIUdB3hzbBUZrWf50NxoPsgCXpRiRhT0RBzx3aMVftN25eSBof8FoUCX1GFPTbgd/EuktRRUEsynwgb44PWBqKhB4jCvrs4KaXCpGmOgoiIUbVj0NqBIqE/iIKeiw8uEOellFQRUEap/qeRKQHLZMuEsiCHiIK+itMDv4GjsKgjoLmNUtxYAdf9VTiw14CNhAF/SXbnIm6fC0KhgcWCMpAHNizgA1EQSf9x9F2vzLU4hZRkKV5KcrB4a84FuKfPLLQ/9Hmp4pNiILu+dVvf3PWxuRbI2+3iIJI7Uw0kARBKMTjSz1ke+smoqBzfvXrVkGgosDI8Nx6r0DEBiYGbIqCs7O/fmLz48UjiIKu+ep/ffab337Xwn/6B98eMgdgYW2sYFSK3MArin/+h48s9d/++7Oz37X24eJxREHHPPm7sz//Vbunpma682tREAxFeegLFmJjnPz92dk3BhYbhhEFHbPLf5DYyHSeel5BWhUG02qq0f7UzsRk41L9w9lvTHxSMIso6JjfP/t1y06BiSlGShUFcd03iA+cFNBiitHfnJ39jYmPCkYRBd3y5L8/+9v2zzYy538x8TifBlP5gtEhL9Zq4jHbXBcRBd2y63+P6eFz/tPmcKTKIZ2CltHENtdFREG37PzfIzv8OIS69Y+G6qUO6WO0PUiZba6LiIJu2eO/x7ArBwa3PiqRba6LiIJu2ee/h4EiwYAdxi3Y5rqIKHDA4UXC4XY5g9H/5n/beicJToYocIL1IoFTlvQeUeAGu0UCJzJzAFHgCJtFAqc3dQFRYNeX2Wz2Qf38KH8+nc2e6Xs/y3uD97PZRfVPO9aKhBbFweeLi896dS8uLgL5/7C590tQPwLbiALLZFv/KBvG+Wz2o86FL+rOT+rWrlFgqUhoVRx8kGup1uzn2ey9+ucXfa/+ZTY7P/Ui4yFEgW3PZrOfgl+qQJC/P1X36TaycxRYKRJaFgc/6hb/Xnd7dNAFVY8oJAq6giiwTRUDnz9WLb6uED7rNrJ7FFgoEtruOQjlGv6i2v7nJgL02spIIAo6giiwTpUIs9kn9WtdIbxXHYW9ouDERcIOew5kifDzj6o8CHTn55fFD6KgI4gC+85lAPwcNr8+1W3kw55RcNIiYac9BzIHmlHRqjtQdw6Igo4gCuyTX5jVt2Wgxgz06OHHYN8oOGGRsNu0IlUizKqdBVUIVIFAFHQFUWCf7ARU4+uyvahG8ouuD/aOghMVCbtOKwp/XkRBVRr8WJUJREFHEAXWVWMFdXuQ7ePDj9VUg72j4CRFws7Tij4tCwTd+QmrnSZEQVcQBbZdyCah9iDovYiqkfz0UdcHB0TBCYqEnY85UDMLnjWFkIqBD1XfhyjoCqLAslDPuvmlKRFkRf2xbiOHRMGRi4TdjzlQIwUfLhYlgppmUPV9iIKuIAos+6nqNZ83neefZvVU5MOi4KhFwh7HHFRTjNTK6nz6Ra2l7vsQBV1BFNj1of6iVMcgvG/uqNrIYVFwxCJhjwOSn1a9nrCZQKGGR6u+D1HQFUSBXc1xOstfLppfvqijdr40h+7s4ThFwj4HJIc/np/rww4+nJ+f60Lovfylyrjz80+mFxH7IAocdowigQOSXUUUOM14kcDZipxFFLjNbJHA2YocRhR0y6/+1b/6M6MvaLJIMFUcfPfdV0bXESYQBd1yhP8exooEY8UB21wXEQXdcoz/HmaKBIPFAdtcFxEF3XKU/x4migSTew7Y5rqIKOiWI/33OLhIMLrngG2ui4iCbjnWf4/DigTDew7Y5rqIKOiWo/33OKRIMD2tiG2ui4iCbjnif4+9iwTj04rY5rqIKOiWY/732K9IOMK0Ira5LiIKOuM//g9///d//7/7x3/838sf/8NfHOMd9ikSDBcHv5Ur9/f/+H9Q6/j3f3OMdcS+iILu+POzhf/jkd5i5yLBdHHw9XIdz5hy2ClEQXf8dtlKfnus99itSDBfHDxdruNfHmsdsReioDv+bNlMzB6HsGqXIuEIByQ/+fViHZ8ebR2xD6KgQ/7HppX85pjv0rpIOMoBycsK4SjDIdgbUdAhf9W0kr866tu0KxKOdEDyN806/sNR1xE7Iwo65M+OXx9obYqEY52t6KtmHb857jpiV0RBl9QVwv949DfaWiQc72xFQ+qDbiIKuuSvTlEfaJuLhGOeraiuEP7u+OuInRAFXfLvqmby707wVpuKhKOeyrSuEAYnWEfsgijolN+oVvKfnOa9Hi0Sjnwq07/UUfCr06wkWiMKOuW3R51fdMfDRcLRT2WqZxn9mxOtI1ojCjrlP6hm8renereHioTjX+dAVwj/p1OtI9oiCrrl2dnZsxO+3b0i4RTXOfgH6oMuIgq65a/Pzv76lO+3XiSc5joH31AfdBFR0C1/e8L6QFstEqanuQjaX7D/oIuIgo75x3889TvKIkHERRQNEnGii6D9+zNOVdA9REHH/Ot/ffK3VEVCZTI9yRsOmF/UQURBx/zbf2vhTYuxCoI8OtHb/er//M7CSmIzoqAjnr/4/vJqXru6/P7Fc9tLxEr6hSjogJevLucPuHz10vaSsZL+IApse/3iavklWVt8eV69eG17+VhJTxAFdj3XX5VX1zf3WsPrm2vdUi7734n2YiV7jyiwSbeR2+tH28Hz69v+txMvVtIBRIE9r9+o78qbzU+6Ud+ab/rbg/ZiJZ1AFFjz6nZ7G1FUO7l9ZXtpWUnXEQWWvH7bfttX7eltH78zvVhJVxAFdvxwu0uPWPWyb3+wvcyspNOIAiteya2+Rbd56Ua2qr71n71YSXcQBTZcy77wjjNrXsq+9rXt5WYlHUYUWKAayc6z8N/1rJl4sZIuIQpO73rPzX3fv2Ml0QJRcHL7b+w9aiZerKRbiIJTe3XApn7dl2E1L1bSMUTBif0gS+j9/1qW0n3Y3ebFSrqGKDit17d7DKYtvXs7v+3+NBwvVtI5RMFpya38oOPzX94e8n3LSuJRRMFJyRp6p0k39910v5L2YiXdQxSckuw5vzn0Nd50vffsxUo6iCg4JRNbuImWxkriHqLghJ4b6ffK/neXT/PhxUq6iCg4ocv5lYmXuZpf2l4T31fSRUTB6Tw/eDitctPlb0wvVtJJRMHpGPq+7PY3phcr6SSi4GReG/q+1N+YXR1f92Il3UQUnMyL+a2pl7qdv7C9Nj6vpJuIgpO5MnfE3bWpXjgriQZRcCovDY6DPZ/Pu3l5MS9W0lFEwam8Mvkld9XRiblerKSjiIJTuTR5Ro7rjg6ve7GSjiIKTMrzxx8zNrSu3MznttfV35V0FFFgUCFEceeuMIqqX54b3Tf2upsTcLxYSVcRBSYN7/UKIiGqX15sqaLDWIh0cWssRLTx6Ved3NO2bSWDQVl9HqmobVzLbq6kq4iC41pEwfebC99ItpFlFETbGoksyr+3vWoP2LKS4Vi1fvVb3ioKurmSriIK9hKlshKYDsLqVpFmwTSVW3Wa6ltRMBoU+rFUbvOpemTLZj0QIkkWURAmW6Pg+04OqW1eyUyu1riKgljkkRb2byVdRRTsJRVxob7H80zdisW01N/pejuPhQoAUeahukPU3/abO7uxGMsKoYmCoUgmW6Jga1f8KEajzY9vXslIlFHdS5rcG1Tpzkr6iijYSypk249leS+mgWrIpSjHxSIKSpHkpR5CXPYKNg+BqT9eRMFIdgniLVHw3Mbo+qgsNy/V5pWMxmFTMG3r9FhcSW8RBXtJhZjIjTmaiCRQjbj+kqujQAwCNfI3DlbGCja3kjBYiYKJyINORkE4mWR37hrF8cqt7StZfR6hEKNgtLE4sLaS3iIK9pJWzT2Y6q+3WEyqu5teQf1Q2DoKgmAZBQNRht2MgiC813oX69dyJavny3/zRP5/S9eAKDglomAvMgqq70cdCYvv8zoKhvWNaNlU3rWOgqwUulrYGgUHXGmgpbWGf+dLvL61FgUtVnIRBULosRb7K4kaUbCXVBcGQd1+70ZBWt/YKwpiEQfWoyAVcTZMRD6qlywaJqvDolPZ89GPLYdFW65k9XmM0rQIg2jcBKqdlcQaomAvafNlmLSMgtYFwlSUWdAqCo67fpNEt/K4WpixWN1DMi71Y9O7UdC6QGiUVZllaSWxhijYS1oPgWdCFEajICybvoHlKFCVfJZXXfhYRsJ0Zf3UrSLRD+03VtAYNp0rKyuJNUTBXtL6q7BQQ+FboqCqqltGwUDto5RKMYk37Xo/fhQMV9evXFs/3a0f6DsPi4KieWErK4k1RMFe9LdmFqZlXdg/GgWhqPcubJ9Pr/9uMTl/td/9gCPPvrnb6xmurd+4fii627S3r2T1/EFcjReON48bMsXolIiCvchautRj4IkaPNsQBerAolLd3j6fXv9dVs3HlS1mEG0aUjvynNzdx0K07StZPT+rpmZFus9hbSWxhijYSyrikWzkdR9+UxSM8qrnsH2zjle7AZYPR9p5D0ll+0pGi8ORxmnc9JgsrSTWEAV7SVXzDkftnqy/3bd3dneKgiMfv7syb2KXKNi+kvXzM32MYplv/gQ5SPmUiIK96CjYyfazehTpSutP04173I99Vo+7sylbRsH2lczS+qWyQVxsmXnMqUtOiijYy+5R0K9zfaljLGQWZbGaBL0pCkbrJ27q1UpiDVGwlz2ioFdnANVHXubqWGvV0DeNhSRCDJe9mV6tJNYQBXvRpy7ZTa/OCy6jbqgnG+pWvikKirUjCXq1klhDFJxKr64Wono92aAZ1VuMYizO0lTd0MMZYZFO+7mSWEMUnEyfriG2RwHUv5XEGqLgZPp0ZdG9o6BPK4k1RMHJ9Ol643tHQZ9WEmuIgtO5NNXjvTr60PreUdCnlcQaouB0nhv6xrzp8tQbL1bSSUTBCRn6xuz296UXK+kiouCE5DemgT3lr7r9fenFSrqIKDilN/Pbg4fCXt/O39heD1bSQUTBKZnYwk20NFYS9xAFJ/Xq4EG1GyP9b1YSdxEFp/V2fnvQbNqXt/O3tteBlXQSUXBasvf89oBz+79724eesxcr6Ryi4MR+mB/yjfd2Pv/B9hqwkm4iCk5NVtJ7H7Fz3Zca2ouVdAxRcHLXezeT/f+SlcSJk6uKAAALeUlEQVQ2RMHp7bux96qReLGSTiEKLJCb++7Dau/e9quReLGSLiEKbFDNZMfdbS9710i8WEmHEAVWvJrPb3eahnNz27/BNC9W0h1EgR0/yK3+Teud56/fyFbVvx1sXqykM4gCS17LvvBty6/AV7JJve3jpBsvVtIVRIE1atu/atGBvrlq3546x4uVdANRYI/qEW9tJ6qN7NDL7hwvVtIJRIFNzy9lE7i9fvQkHc+v5Zfq/LLfJ/HwYiUdQBTYpdvJ/Or65t5X4uuba/Vd6UIb8WIle48osO31C90Y5leX3794Xnvx/WV95ws3es1erGTPEQUd8PKV/tq86/KVSxcK82Il+4wo6Ij6S/JP/i//8k/qL0/bS3S8lVSr6O5K9hVR0C1e/Pc4O/u/2l4E3OPFptcjT87O/sz2Mhzd2dkf2l4E3EMUdMzZ2cj2IpxgHdnmuoco6BiiAHYQBR1DFMAOoqBjiALYQRR0DFEAO4iCjiEKYAdR0DFEAewgCjqGKIAdREHHEAWwgyjoGKIAdhAFHUMUwA6ioGOIAthBFHQMUQA7iIKOIQpgB1HQMUQB7CAKOoYogB1EQccQBbCDKOgYogB2EAUdQxTADqKgY4gC2EEUdAxRADuIgo4hCmAHUdAxRAHsIAo6hiiAHURBxxAFsIMo6BiiAHYQBR1DFMAOoqBjiIKTGsXacJDVdwzjuLC9UJY+ig79Z0FAFJxYJGrlQN3MJvLX1PZC2UEUdAxRcFIyCgZRNIhlAsh+wbQUZUkUoBOOHgVZqhXR4p7RMI8OeMF91rEz25yMAr3uYSJktyAWkywmCtAJR4+CRZc4qdp/kegbg5OuY2e2uSYKgqFIZBQMVRwQBeiCU0RBnqZ5KcvjUN4M5c/hMNH949OtY2e2uUUUTIWQPaaAKEBXnCIK9MYv62I1VD4QE3UrFsNTrmNntrlFFOSqV1B9EkQBuuBkUSA3/lj+q2tkWSaI8pTr2Jltrv40QhmMeXUPUYBuOF0U6C5xEEXh8sbJ1rEz25z8NCZxrHYglPXnThSgG04XBcPVjkAuxqdcx85sc4tB1Dis7yEK0A0ni4IsWWn98s4TzrHr0DZXDaIOV+YVEQXohhPtQRiqaXXT5r5RqccNTreOndnm6mDMq90pClGAbjjdvIJy8UbhRCThIa+58zp2ZpuroyATzaghUYCOOEUUTOI4X6kIZBKUJ53t3KFtrimX8sXECqIA3XCqsYJ42SU+dRJ0MQqyshk5IQrQDaeKgmgxUpY3uxROuI6d2eYW+1PS5heiAN1wsj0ITbcgP+nOg3odO7PNjeK4+rzDOK4iYMj5CtAJp9uZKPRcY5kEeaSd7iAEtrkuIgo65pQTj0UWjMTC6frFbHNdRBR0zOmiQO9Ai4gCVIiCjuEsRrCDKOgYogB2EAUdQxTADqKgY4gC2EEUdAxRADuIgo4hCmAHUdAxRAHsIAo6hiiAHd5FQXjKA/P3QBTADm+iIBoM42RxNZB4ODjx0XhtEQWww4soGKWxeECcdrDVEQWww/0oyAbJsidQW/QQksEJLwrUClEAO1yPgkj3B5K8uNfksyLXcRB3q1IgCmCH21Ggg6B8/DrBkbp0YLfCgCiAHS5HQTZWHYIt56TRFxIed6dMIApgh8NRkJbbg0BRYVB25nx2RAHscDYKskn7Bq5CY9KRjgFRADtcjYJpuUu3X5US5dT2MmtEAexwNApS2bR3OnFtUZ7yjF4bEAWww80oyGWHf8cWNZosr5VlE1EAO5yMApUEOx9qEHYjC4gC2OFiFOR7tul9/84oogB2OBgF+7foLmQBUQA73IuC9ID2nNsfOyQKYIdzUTAVYrL/X0+EmNpdfqIAdrgWBVm5x4jhUjgRpd25RkQB7HAtCmRTPqgpjcpDOhUGEAWww7EoSA++QnhhebiAKIAdbkWBLA/Gh77G2G6JQBTADreiwEQzNhEnByAKYIdTURAZ6dynzVXHrSAKYIdTURCLxMTLJCK2tw5EAexwKQqig8cMK4XNbgFRADtcigJDnQK73QKiAHY4FAWZoU6B7hZY24lAFMAOh6JgIEpTL1WKga21IApgh0NRkJg7rDA3VWrsjiiAHe5EwcjgYF8khK0GSRTADneiIDX5TZ5Ym31MFMAOd6IgNnnakdzaPgSiAHa4EwXG9h8ohRCWVoMogB3OREFkdAdgZm2WEVEAO5yJgsG2oYJU1J3+MJ2IMt/S4BJbuxOJAtjRzyh48uTeXcPN1X2orqmsn6FOcq5sHlmIxbDNu5pfs52i4Mv79++/qF/kz88X79//srg3uFCPLP/plF5uc8578t+f/Qfby7C70dnwm6/W73qo7S5FpSgnVRSM1VXUR8MtuwvvJcuTp/+3/+nZ8b+w/+ezs10C53w2O5c/3s9mP4cfZrOP+s5fZrNn6q6LlX86hSjopN8/+/WvbC/DzmRf5uxOGmzu0adiMkp1626mJ8ebexHr9caTP/q//0/qLY8fBf+Ps//nLk//8nE2+yX4PNOtXf7+Qd3542z2tMtR8DdnZ39jexlwXy8rBB0F62mweZwvzcOgioJhfWKSLN04cyBa7kJocuAkUfB3Z//LTs9/qvoDsm/wSf7+02z2k/wRymD40uUo+Iez39heBDzgyd+d/XnvugVNFKykweYoUCdBrqIgVmc3H23d2dBEwUoOnCAKnvzlzu8hY+BHFQfy189VhaDrgw5Hwd+fnX1jexnwkK/+X2e/+WffjXrlu7NVOg227/2rokA+b1gKEU83P1lHwXoOSEf9mH7/uz/6f5+d/dUuf/KkKhGatv6zrhB0fbAeBf+z3f9cq/72H87Oftf2No+H/eqs/4b/n/ZRMBaibHYnPCoS3/5/7+RAB6nSTpYIujyQPukKQdcH61Hw/7O9oGv++gR7YrCXX/32N7a3jkO1joKRCoEiyPItexD6EwWy/eu9CEFdIXzQ9UF3o2DYv6Epr/zH73rlj9c3rh0KhExGgb560njzxIKHC4R/8cfH9Ic7fw5yvS9UfTB7Xy21rBA+f9L1wZ0CwfZ/sIW/sL2lwy07DxsqTYFQRUAhyk0XVLMzbLi7ULZ+1S/4rG/JYuH9M10fdHjYEDBn552JShUFk3oq0mjzMQu2dibu6kdVHfxU1QRB8GU2+7kuF4gC+GDnKUZKFQXjeu5Q3s0pRjtSMwy/BOHHpkR4pqoFPf2YKIAPdp54rFRRUJ8hPSs3H9Nsa+LxbtSeRDUw8KEpEdTuhJkufIgC+ODJV/fuGm492UgVBTIzRJLKfzafE/XBw5G+Cjrm/fn5T/qXT+fneofil/P6l+CX8/PPK/8Avth6kHITBWGaqAMTy+nGJ1s7SBnAQbafuiRKm5JgOs4H4cbn2jt1CYDDOHJCMwCHceQ0pwAO48jJzwEcxpFLogA4kBsXSgNwIDcunwrgQG5cVB3AoWJT3fqE/QdAj0WGugUF84uAXjPULaBTAPSb7BYYmA6Q0ikAem4syoPH+7KyvlICgL4y0YxNxAkAu9KDRw4LI0UGALsmojxoyvCoFBPb6wDgYLJEmIT7/3k4oTwAnDAVh3ytT4S6pCKA/kvF/ocl5QwUAM7I986C/f8SQPfs26JJAsAtsk3vPnYYTkgCwDEqC3bcpzgiCQD3pEKUO801KkpGDAEHTWXTHreeIZCNt14jBUAvZbLDX7b8nk9lbkyYWQS4STXwpEWVUCTtQwNA/6hu/9YwUEGwQykBoIeiWF0oNX/0TCRRLnsOIuZMJYDrdBiIJC/ufe9nRa4vqUwQAF7IBrrFiyQeDqLaYBjXdw4oDQBvjFLdN7grTrkaGuCbZU+g6SHYXiIAFoUHnNgEAAAAAAAAAAAAAAAAAAAAAAAAAAAAAAAAAAAAAAAAAAAAAAAAAAAAAAAAAAAAAAAAAAAAAAAAAAAA6Kv/P0nFlq8uSq7zAAAAJXRFWHRkYXRlOmNyZWF0ZQAyMDI1LTA2LTA0VDAwOjU2OjUzKzAwOjAwC7keWgAAACV0RVh0ZGF0ZTptb2RpZnkAMjAyNS0wNi0wNFQwMDo1Njo1MyswMDowMHrkpuYAAAAodEVYdGRhdGU6dGltZXN0YW1wADIwMjUtMDYtMDRUMDA6NTY6NTMrMDA6MDAt8Yc5AAAAAElFTkSuQmCC;" vertex="1" parent="1">
          <mxGeometry x="280" y="-90" width="1034" height="1920" as="geometry" />
        </mxCell>
      </root>
    </mxGraphModel>
  </diagram>
</mxfile>
